<svg width="524" height="471" viewBox="0 0 524 471" fill="none" xmlns="http://www.w3.org/2000/svg">
<path d="M79.7664 190.802C79.7664 190.802 -8.18628 228.129 7.19343 264.496C22.5731 300.863 66.3092 305.508 66.3092 305.508L82.3297 290.77C82.3297 290.77 36.9916 266.418 39.2345 251.039C41.4774 235.659 87.7767 232.935 87.7767 232.935L79.7664 190.802Z" fill="#000005"/>
<path d="M66.4694 306.309H66.149C65.6683 306.309 21.7721 301.183 6.3924 264.816C-0.0158099 249.597 10.5577 231.814 37.1518 213.39C50.4488 204.419 64.7071 196.569 79.2858 190L80.247 189.68L88.7379 233.576H87.7767C87.296 233.576 41.958 236.46 39.8753 251.039C37.7926 265.617 82.0093 289.648 82.4899 289.969L83.4511 290.449L66.4694 306.309ZM79.1256 191.923C69.8337 195.928 -6.26382 231.013 7.83425 264.176C22.0925 297.819 61.8234 304.067 65.9887 304.547L80.8878 290.77C73.999 286.925 36.3508 265.457 38.4335 250.718C40.5161 235.979 80.0868 232.455 86.8154 231.974L79.1256 191.923Z" fill="#000005"/>
<path d="M395.691 244.791C395.691 244.791 373.423 326.656 349.392 333.544C325.361 340.433 268.168 232.775 268.168 232.775L241.253 197.69C241.253 197.69 229.398 164.368 251.026 183.592C272.653 202.817 360.927 359.658 347.79 245.592L395.691 244.791Z" fill="#000005"/>
<path d="M292.839 281.638C292.839 281.638 309.501 272.346 321.516 273.628C333.532 274.909 359.004 310.315 358.363 321.048C357.723 331.782 340.26 332.263 327.123 321.209C313.986 310.154 292.839 281.638 292.839 281.638Z" fill="white"/>
<path d="M295.563 284.682C299.728 282.439 303.894 280.677 308.379 279.235C312.064 277.953 315.749 277.152 319.594 276.832C321.035 276.672 322.477 276.832 323.759 276.992C324.4 277.152 323.759 276.992 324.4 277.152C324.88 277.312 325.361 277.473 325.842 277.793C326.322 277.953 325.201 277.473 326.002 277.953C326.162 278.113 326.482 278.274 326.643 278.274C327.123 278.594 327.604 278.914 328.085 279.235L328.725 279.715C328.245 279.395 328.725 279.715 328.886 279.876C329.366 280.356 330.007 280.677 330.488 281.157C332.57 282.92 334.493 284.842 336.255 286.925C340.581 291.571 344.425 296.697 347.79 301.984C350.673 306.149 352.916 310.635 354.518 315.441C354.679 315.922 354.839 316.402 354.839 316.883C354.839 317.364 354.679 316.242 354.839 317.043C354.839 317.203 354.839 317.364 354.999 317.524C355.159 318.485 355.159 319.286 354.839 320.247C354.198 322.65 352.276 324.733 349.872 325.374C342.984 327.777 334.813 324.573 329.206 320.568C323.919 316.883 319.914 312.237 315.589 307.271C308.059 298.78 301.33 290.289 294.602 281.317C293.801 280.196 291.878 278.113 290.276 278.594C288.674 279.075 289.956 281.478 290.436 282.118C297.005 290.93 303.894 299.581 310.943 307.912C315.589 313.679 320.875 318.966 326.482 323.772C333.211 329.219 342.343 333.544 351.154 332.583C356.921 331.942 361.567 327.617 360.766 321.529C360.126 316.082 357.242 310.955 354.679 306.309C350.994 299.901 346.668 293.653 341.862 288.046C337.697 282.92 332.891 278.274 327.604 274.268C325.361 272.666 322.958 271.385 320.234 270.904C315.909 270.263 311.423 270.744 307.258 272.026C301.17 273.628 295.242 276.031 289.795 279.235C288.193 279.876 293.16 286.124 295.563 284.682Z" fill="#000005"/>
<path d="M69.8337 347.963C69.8337 347.963 82.6501 475.326 184.861 466.835C287.072 458.344 282.426 351.648 282.426 351.648C282.426 351.648 191.429 310.475 69.8337 347.963Z" fill="white"/>
<path d="M66.4694 347.322C66.7898 351.327 67.5908 355.172 68.3918 359.017C70.3143 368.79 72.8776 378.402 76.2419 387.854C80.4072 400.03 86.0144 411.725 92.9032 422.619C100.433 434.634 110.205 445.207 121.74 453.538C134.557 462.67 149.616 468.277 165.156 469.879C184.06 471.802 203.124 469.238 220.907 462.51C235.326 457.063 248.142 447.931 258.235 436.396C266.726 426.303 273.455 414.608 277.78 402.112C281.465 392.019 283.868 381.446 285.15 370.712C285.951 365.105 286.271 359.337 286.111 353.73C286.111 353.41 286.111 353.25 286.111 352.929C285.951 350.847 284.829 349.084 282.907 348.443C270.571 342.836 257.114 339.472 243.817 336.428C210.814 329.219 176.851 326.976 143.047 329.86C117.415 332.103 92.1022 337.069 67.5908 344.759C65.6683 345.4 66.3092 347.963 67.1102 349.244C68.0714 350.847 70.1541 351.648 72.0766 351.167C112.128 338.671 154.102 333.705 195.915 336.268C210.974 337.229 225.874 339.312 240.612 342.356C246.38 343.477 251.987 344.919 257.754 346.521L259.356 347.002L260.318 347.322C259.517 347.162 260.478 347.322 260.638 347.482L264.002 348.443C265.925 349.084 267.847 349.725 269.77 350.206C273.935 351.487 278.1 353.089 282.106 354.852L278.902 350.366C279.062 354.211 278.902 358.056 278.581 361.901C278.261 366.066 277.78 370.231 277.139 374.237C276.338 379.203 275.217 384.169 273.935 388.975C270.731 400.67 265.765 411.885 259.036 421.978C251.186 433.833 240.612 443.605 228.116 450.494C212.416 459.145 194.313 463.15 176.53 463.631C168.36 463.791 160.189 462.99 152.179 461.228C148.655 460.427 145.13 459.306 141.766 458.024C140.004 457.383 138.402 456.582 136.799 455.941L134.557 454.82L133.435 454.179L132.634 453.698C129.59 451.936 126.546 450.174 123.663 448.091L121.58 446.489L120.619 445.688L119.978 445.207C118.696 444.086 117.415 442.965 116.133 441.843C113.57 439.6 111.327 437.197 109.084 434.634C108.603 433.993 107.963 433.352 107.482 432.711C107.001 432.071 107.802 433.032 107.161 432.391L106.2 431.27C105.079 429.988 104.118 428.706 103.156 427.264C101.234 424.541 99.3114 421.817 97.5492 418.934C96.7482 417.492 95.7869 416.21 94.9859 414.768L94.3451 413.647C94.1849 413.487 93.8645 412.686 94.1849 413.327C93.7042 412.526 93.3838 411.885 92.9032 411.084C90.0195 405.637 87.296 399.869 85.0532 394.102C83.9317 391.378 82.9705 388.655 82.0093 385.932C81.5287 384.65 81.048 383.368 80.7276 381.926L80.4072 380.965C80.0868 380.164 80.4072 381.125 80.247 380.645C80.0868 380.164 79.7664 379.203 79.6062 378.562C78.3246 374.076 77.0429 369.43 76.0817 364.784C74.9602 359.337 73.999 354.051 73.198 348.604C73.198 348.283 73.198 348.123 73.198 347.803C72.8776 344.919 65.8285 342.516 66.4694 347.322Z" fill="#000005"/>
<path d="M72.8776 352.929C74.9602 356.614 78.9654 359.177 82.4899 361.26C93.7043 367.989 107.001 371.513 119.658 374.237C144.329 379.844 169.481 382.247 194.634 381.606C213.858 381.125 233.083 377.921 251.506 372.154C257.114 370.392 262.561 368.309 267.847 365.906C270.25 364.945 272.653 363.823 274.896 362.381L275.217 362.221C278.901 359.978 273.615 354.051 270.25 355.973C268.809 356.774 267.207 357.575 265.765 358.376C261.599 360.299 257.434 362.061 253.108 363.663C236.768 369.27 219.946 372.795 202.644 374.076C177.972 375.999 152.82 373.756 128.469 369.27C119.818 367.668 111.167 365.585 102.676 363.022C101.074 362.542 99.4716 361.901 97.8696 361.42L95.7869 360.619L94.8257 360.299L94.0247 359.978L93.3838 359.658L92.5828 359.337L90.8206 358.536C89.6991 358.056 88.7379 357.575 87.6165 356.934C86.0144 356.133 84.4123 355.172 82.9705 354.211C82.3297 353.73 83.9317 354.852 82.8103 354.051L82.0093 353.41C81.5287 353.089 81.048 352.769 80.7276 352.288C80.4072 351.808 80.0868 351.648 79.6062 351.327C78.9654 350.686 80.247 352.128 79.9266 351.648C79.7664 351.487 79.7664 351.487 79.6062 351.327C79.446 351.167 79.1256 350.526 78.9654 350.366C78.8052 350.206 79.6062 351.487 79.446 351.007C78.4848 349.245 76.5623 348.123 74.4796 348.283C73.0378 348.604 72.0766 350.206 72.5572 351.648C72.5572 352.288 72.7174 352.609 72.8776 352.929Z" fill="#000005"/>
<path d="M201.843 462.189L199.119 460.427L196.396 458.825C197.357 456.742 197.998 454.499 198.479 452.257L204.726 453.698C204.246 456.582 203.285 459.466 201.843 462.189ZM206.168 445.368L199.76 444.406C200.081 442.003 200.401 439.44 200.721 436.556L207.13 437.197C206.969 440.241 206.649 442.965 206.168 445.368ZM207.77 429.187L201.362 428.706C201.522 426.303 201.683 423.58 201.843 420.696L208.251 421.016C208.251 424.06 208.091 426.784 207.77 429.187ZM208.571 413.166L202.163 413.006C202.163 410.443 202.323 407.88 202.323 404.996H208.732C208.732 407.88 208.732 410.603 208.571 413.166ZM202.323 397.146C202.323 394.583 202.323 392.019 202.163 389.136L208.571 388.975C208.571 391.699 208.732 394.422 208.732 396.986L202.323 397.146Z" fill="#000005"/>
<path d="M100.913 286.925C100.913 286.925 78.645 298.299 82.6501 303.266C86.6552 308.232 95.9471 314.64 95.9471 314.64C95.9471 314.64 74.1592 321.529 81.5287 325.534C88.8981 329.539 99.792 335.947 99.792 335.947C99.792 335.947 82.0093 345.88 85.3736 350.847C88.7379 355.813 195.435 378.562 265.765 349.405C265.765 349.405 265.765 342.516 257.915 334.506C257.915 334.506 270.25 332.103 268.809 328.578C267.367 325.054 258.395 313.679 258.395 313.679C258.395 313.679 275.217 312.718 272.333 305.188C269.449 297.658 260.478 286.284 260.478 286.284L100.913 286.925Z" fill="#000005"/>
<path d="M98.19 284.041C93.3838 286.444 88.8981 289.168 84.7328 292.372C82.4899 294.134 79.6062 296.377 78.645 299.421C77.5235 303.426 81.8491 306.79 84.4124 309.033C87.6165 311.756 90.8206 314.48 94.3451 316.883L93.8645 311.596C88.8981 313.038 84.2522 314.961 79.9266 317.684C77.6837 319.286 75.6011 321.369 76.7225 324.252C77.6837 326.495 79.7664 327.617 81.8491 328.738C84.0919 330.02 86.495 331.301 88.7379 332.583C91.141 333.865 93.3838 335.307 95.7869 336.588L97.0686 337.389L97.389 337.55L98.19 338.03L97.0686 333.064C91.6216 336.108 74.1592 346.681 84.5726 353.57C87.296 355.172 90.34 356.294 93.5441 356.934C98.19 358.216 102.996 359.337 107.642 360.138C140.164 366.547 173.326 368.469 206.489 365.906C227.476 364.144 248.463 360.299 267.847 352.288C268.809 352.128 269.61 351.167 269.449 350.045C269.449 343.637 264.483 337.069 260.318 332.743L259.997 337.389C264.163 336.588 274.736 334.345 272.173 328.258C270.571 324.893 268.648 321.849 266.245 319.126C264.643 317.043 263.041 314.961 261.439 312.878L259.677 316.883C265.284 316.563 277.78 314.961 276.178 306.79C275.377 303.746 273.935 300.863 272.173 298.299C270.571 295.736 268.969 293.173 267.207 290.77C265.444 288.366 262.881 283.4 259.196 283.24C256.633 283.08 254.23 283.24 251.667 283.24H233.884L181.497 283.4L128.148 283.56C118.856 283.56 109.404 283.4 100.112 283.721H99.6319C98.3502 283.56 97.389 284.522 97.2288 285.643C97.2288 285.963 97.2288 286.444 97.389 286.764C98.19 288.687 99.9523 289.969 102.035 290.129H117.895L156.024 289.969L202.003 289.808L242.054 289.648H255.191C257.274 289.648 259.356 289.808 261.439 289.648H261.76L257.594 287.085C259.356 289.488 261.119 291.891 262.881 294.294C264.323 296.537 265.765 298.78 267.046 301.023C267.527 301.984 268.008 302.785 268.488 303.746C268.809 304.227 268.969 304.868 269.129 305.348C268.969 304.707 269.129 305.989 269.129 305.669C269.129 306.149 268.969 306.47 268.648 306.79C268.328 307.271 267.847 307.591 267.367 307.751C266.085 308.552 264.643 309.033 263.201 309.353C261.76 309.674 260.318 309.994 258.716 310.154L257.754 310.315C257.114 310.475 258.395 310.315 257.915 310.315H257.274C255.992 310.154 254.871 311.116 254.871 312.397C254.871 313.038 255.031 313.679 255.512 314.16C259.036 318.485 262.24 322.971 265.124 327.617C265.284 327.937 265.444 328.097 265.604 328.418C265.284 328.097 265.444 328.258 265.444 327.777C265.444 327.617 265.444 327.296 265.604 327.296C265.765 327.296 264.964 327.937 265.444 327.457C264.483 328.097 263.362 328.738 262.24 329.219C260.158 330.02 258.075 330.5 255.992 330.981C253.589 331.462 254.39 334.345 255.672 335.627C258.235 338.19 260.318 341.234 261.599 344.599C261.76 345.079 261.92 345.72 262.08 346.361C261.92 345.88 262.08 346.681 262.24 347.002C262.24 347.322 262.4 347.803 262.4 348.123L264.002 345.88C231.16 359.498 194.153 361.74 159.068 359.978C144.329 359.337 129.75 357.735 115.172 355.332C109.725 354.371 104.278 353.41 98.991 352.128C97.0686 351.648 95.1461 351.167 93.0634 350.686C92.2624 350.526 91.4614 350.206 90.6604 349.885L89.6991 349.565L89.2185 349.405C88.5777 349.244 90.1797 349.725 89.3787 349.405C88.8981 349.244 88.2573 348.924 87.7767 348.764C87.6165 348.604 87.4563 348.604 87.1359 348.443C86.495 348.283 88.2573 349.244 87.4563 348.604C86.6552 347.963 88.4175 349.565 87.9369 349.084C89.3787 350.686 87.6165 349.244 88.5777 350.045C88.7379 350.526 88.7379 350.526 88.5777 350.206C88.5777 349.885 88.4175 349.885 88.5777 350.206C88.8981 349.244 89.5389 348.283 90.1797 347.482C93.8645 343.798 98.0298 340.754 102.676 338.511C104.758 337.389 102.836 334.345 101.554 333.544C98.0298 331.462 94.5053 329.379 90.8206 327.296C88.2573 325.855 85.694 324.413 83.1307 323.131L82.1695 322.65C82.6501 322.971 82.8103 322.971 82.4899 322.811C82.9705 323.291 83.4511 323.932 83.6113 324.733C83.1307 325.214 83.6113 324.733 83.7715 324.573C83.9317 324.413 84.5726 323.772 84.0919 324.252C84.4124 323.932 84.5726 323.772 84.893 323.612C85.5338 323.131 86.3348 322.65 86.9756 322.33C88.5777 321.529 90.1797 320.728 91.7818 320.087C93.5441 319.446 95.7869 318.485 97.8696 317.844C100.753 316.883 99.1512 313.679 97.389 312.557C94.9859 310.955 92.743 309.193 90.5002 307.431C88.8981 306.149 87.4563 304.707 86.0144 303.266C86.0144 303.105 85.0532 302.304 85.0532 302.144C85.0532 301.984 85.694 303.266 85.3736 302.785C85.5338 303.426 85.2134 303.586 85.5338 302.785C85.5338 302.625 85.3736 303.105 85.694 302.625C86.0144 302.144 86.0144 302.144 86.1746 301.984C86.495 301.503 86.9756 301.023 87.4563 300.542C88.4175 299.581 89.5389 298.62 90.6604 297.819C93.2236 295.896 95.9471 294.134 98.6706 292.692C100.273 291.731 101.875 290.77 103.637 289.969C107.001 288.046 101.234 282.439 98.19 284.041Z" fill="#000005"/>
<path d="M113.89 320.087C127.828 320.728 141.606 321.048 155.543 321.369C181.176 321.849 206.809 322.01 232.282 320.408C242.855 319.767 253.749 318.966 263.842 316.082C264.483 315.922 261.92 312.878 261.599 312.558C260.959 311.917 259.356 309.994 258.235 310.315C249.264 312.878 239.811 313.519 230.68 314.32C218.184 315.281 205.528 315.601 193.032 315.762C169.962 316.082 146.732 315.601 123.663 314.8C118.696 314.64 113.89 314.48 108.924 314.16C107.802 314.16 110.045 316.723 110.205 316.883C110.846 317.844 112.608 319.927 113.89 320.087Z" fill="white"/>
<path d="M118.536 342.836C130.071 344.118 141.766 344.919 153.301 345.56C176.851 347.002 200.401 346.841 223.791 344.759C236.127 343.798 248.302 341.394 260.158 337.71C261.599 337.229 258.075 330.18 255.832 330.981C245.419 334.185 234.685 336.428 223.791 337.389C211.776 338.671 199.6 339.472 187.585 339.472C167.399 339.632 147.213 338.671 127.027 337.069C123.022 336.749 119.017 336.428 114.851 335.947C113.249 335.787 114.691 338.831 114.851 339.312C115.652 340.593 116.934 342.676 118.536 342.836Z" fill="white"/>
<path d="M452.083 152.512L462.817 144.662C489.251 122.394 500.305 102.368 480.76 87.6294C462.657 73.8517 435.422 115.986 435.422 115.986C447.437 103.329 469.546 61.8363 440.869 51.7434C433.019 49.0199 416.197 52.224 399.376 90.5131C390.885 109.097 380.632 126.88 368.937 143.541C373.903 119.03 370.379 85.8671 351.475 87.7896C323.439 90.6733 320.074 132.006 322.638 182.471C323.439 200.093 327.284 217.235 334.333 233.416C341.221 249.276 354.999 260.971 371.66 265.457C399.055 272.666 421.004 262.734 445.515 233.897C445.515 233.897 513.602 162.926 497.261 141.298C484.765 124.477 452.083 152.512 452.083 152.512Z" fill="white"/>
<path d="M455.768 153.634L464.74 146.905C470.026 142.9 474.833 138.575 479.318 133.608C487.329 125.278 497.582 112.782 493.737 100.286C490.372 89.712 478.517 82.3426 467.623 83.6242C458.492 84.7457 450.642 91.9549 444.554 98.3631C439.748 103.49 435.422 108.937 431.577 114.864C431.417 115.185 438.146 118.068 439.427 116.787C443.272 112.461 446.797 107.655 449.52 102.528C453.045 96.6009 455.768 90.1926 457.53 83.464C459.132 77.5364 459.773 70.968 457.851 64.8802C455.768 58.9526 451.122 54.3067 445.195 52.224C440.709 50.1413 435.742 49.3403 430.776 49.8209C426.29 50.6219 421.965 52.5444 418.44 55.5883C403.701 67.2833 397.614 86.3477 389.283 102.528C382.234 116.466 374.224 129.763 365.092 142.42L372.942 144.342C375.185 133.608 375.505 122.714 374.224 111.82C373.102 103.97 370.539 94.358 363.33 89.8722C355.64 85.3865 346.188 85.2263 338.338 89.5518C331.609 93.3967 327.284 100.125 324.56 107.174C320.875 116.626 319.594 127.04 318.793 137.133C317.992 150.109 317.992 163.086 318.632 176.063C319.113 189.84 321.196 203.618 324.88 216.915C328.085 227.809 332.41 238.543 339.94 247.194C348.27 256.325 359.004 262.734 371.02 265.778C381.593 268.661 392.647 269.783 403.541 267.38C414.435 264.977 424.208 259.049 432.538 251.84C439.107 246.233 444.554 239.824 450.481 233.576C458.171 225.406 465.541 216.915 472.59 208.104C482.522 195.608 492.455 182.471 499.184 167.892C503.83 157.799 508.155 142.74 495.018 136.973C486.528 133.288 477.716 134.249 469.546 137.934C462.977 140.978 456.89 144.662 451.282 149.148C450.321 149.949 449.2 150.75 448.238 151.551C447.918 151.872 451.603 153.153 451.923 153.153C452.884 153.313 455.127 154.115 455.928 153.474C459.132 150.75 462.497 148.347 466.021 146.104C472.109 142.099 479.158 138.254 486.528 137.133C487.329 136.973 488.29 136.973 489.091 136.973H489.892C490.052 136.973 490.533 137.133 490.212 136.973C489.892 136.812 489.732 136.812 489.411 136.812C489.732 136.812 489.732 136.973 489.571 136.812C489.411 136.652 489.251 136.652 489.571 136.812C490.212 137.293 491.013 137.774 491.654 138.254C493.577 139.856 494.858 142.099 495.499 144.502C496.781 149.469 495.499 155.076 493.737 159.722C488.931 173.66 479.959 186.156 471.148 197.851C463.298 208.104 454.967 218.036 446.316 227.649C436.543 238.382 427.091 249.437 414.756 257.126C406.265 262.573 396.652 265.778 386.559 266.258C376.787 266.579 367.014 264.015 358.844 258.729C339.299 246.072 331.769 222.362 328.245 200.414C326.322 187.117 325.521 173.82 325.681 160.523C325.521 149.148 326.162 137.934 327.604 126.719C329.847 112.301 334.973 93.5569 351.154 89.5518C351.955 89.3916 352.756 89.2314 353.717 89.0712C354.518 89.0712 355.48 89.0712 356.281 88.911C356.601 88.7508 355.96 88.911 355.8 88.7508C355.64 88.5906 354.999 88.4304 355.159 88.5906C355.48 89.0712 356.441 89.3916 356.921 89.712C359.805 92.1151 361.888 95.3192 363.169 98.8437C366.694 107.815 367.175 118.068 366.694 127.52C366.374 132.487 365.733 137.613 364.772 142.42C364.611 143.381 371.821 145.303 372.622 144.342C379.51 134.73 385.919 124.637 391.526 114.223C396.813 104.771 401.138 94.8386 405.944 85.2263C409.629 77.216 414.435 69.8466 420.042 63.2782C423.407 59.1128 427.732 55.9087 432.699 53.6659C434.301 53.025 435.903 52.5444 437.665 52.3842C437.985 52.3842 438.306 52.3842 438.786 52.224H439.587H439.908C440.549 52.224 439.107 52.0638 439.908 52.224C440.228 52.224 440.869 52.3842 439.748 52.224L439.427 52.0638L438.786 51.9036C439.427 52.224 440.068 52.3842 440.549 52.7046C444.554 54.6271 447.598 57.8312 449.36 61.9965C451.603 67.4435 451.282 73.6915 450.161 79.2987C448.559 86.5079 445.835 93.2365 442.151 99.6447C439.267 105.252 435.582 110.378 431.417 115.024L439.267 116.947C442.151 112.621 445.195 108.456 448.559 104.611C454.166 97.8825 460.895 90.9937 469.225 87.6294C470.988 86.8283 472.91 86.3477 474.833 86.1875H475.794C476.435 86.1875 476.274 86.1875 476.595 86.1875C476.114 86.0273 475.634 85.8671 474.993 85.8671C474.993 85.8671 475.634 86.1875 475.794 86.3477C480.44 89.0712 484.124 93.557 485.887 98.6835C489.411 110.058 481.081 121.433 474.032 129.443C469.065 135.21 463.618 140.337 457.691 144.823L448.238 151.711C447.437 152.352 450.481 153.153 450.802 153.313C451.763 153.313 454.807 154.435 455.768 153.634Z" fill="#000005"/>
<path d="M323.599 137.613C331.289 140.337 339.139 142.099 347.309 142.9C356.441 143.701 365.573 140.817 372.622 134.89C373.903 133.768 370.859 132.647 370.218 132.487C368.777 132.166 366.374 131.526 365.252 132.647C359.645 137.613 352.275 140.177 344.906 139.536C338.658 138.735 332.41 137.293 326.482 135.21C325.361 134.89 322.317 134.249 321.516 135.371C320.715 136.492 322.958 137.293 323.599 137.613Z" fill="#000005"/>
<path d="M434.941 116.466C438.146 128.802 446.156 139.376 457.37 145.784C458.812 146.585 461.215 147.386 462.337 145.624C463.458 143.861 462.176 141.779 460.734 140.978C459.613 140.337 458.331 139.536 457.21 138.895C456.569 138.414 455.928 137.934 455.448 137.613L454.647 136.973C454.006 136.492 454.647 136.973 454.326 136.812C453.365 135.851 452.244 134.89 451.282 133.929C450.802 133.448 450.321 132.807 449.68 132.327L449.2 131.686L448.879 131.205C445.515 126.88 443.112 121.913 441.83 116.627C441.029 112.621 433.66 111.82 434.941 116.466Z" fill="#000005"/>
<path d="M409.629 160.202C415.877 154.115 421.324 147.226 426.13 140.016C431.096 132.807 435.582 125.117 439.748 117.428C441.029 115.185 433.5 112.621 432.058 115.345C428.053 123.035 423.567 130.404 418.6 137.613C413.955 144.662 408.668 151.231 402.58 157.319C400.337 159.241 407.546 162.285 409.629 160.202Z" fill="#000005"/>
<path d="M429.655 178.786C441.51 169.975 450.642 158.44 461.055 148.187C462.337 146.905 459.933 145.143 458.972 144.823C457.21 144.022 455.288 144.182 453.846 145.463C443.753 155.396 434.941 166.611 423.407 175.101C421.965 176.223 422.926 177.825 424.208 178.466C425.489 179.107 428.213 179.908 429.655 178.786Z" fill="#000005"/>
<path d="M370.379 145.303C371.34 145.944 369.578 144.662 370.379 145.303L371.34 145.944C371.66 146.104 372.141 146.745 371.18 145.784C371.34 145.944 371.66 146.264 371.981 146.425L372.622 147.065C372.782 147.226 373.583 147.867 373.102 147.386C372.622 146.905 373.423 147.706 373.583 147.867L374.544 148.828C374.704 148.988 375.505 149.949 374.864 149.148L375.826 150.109C376.467 150.75 377.268 151.711 377.748 152.192C384.317 160.363 388.802 170.135 390.565 180.548C391.846 188.719 391.846 197.21 390.404 205.38C390.244 206.502 392.968 208.424 393.769 209.065C394.249 209.385 396.492 211.148 396.652 210.026C399.216 195.768 397.453 181.189 391.366 168.052C387.2 159.401 381.112 151.711 373.903 145.463C372.301 144.022 370.379 142.58 368.616 141.298C367.815 140.817 366.374 139.856 366.694 141.298C367.014 142.74 369.257 144.662 370.379 145.303Z" fill="#000005"/>
<path d="M400.337 86.9885C407.867 100.446 419.882 111.82 435.742 113.583C437.505 113.743 439.748 112.942 439.908 110.859C440.068 108.776 437.825 107.655 436.223 107.495C423.086 106.053 413.634 95.4794 407.386 84.5855C405.624 81.2212 398.094 82.8232 400.337 86.9885Z" fill="#000005"/>
<path d="M453.045 152.833C453.685 156.998 454.967 161.164 456.89 165.008C458.331 168.693 460.254 172.218 462.497 175.582C467.143 182.311 474.192 187.437 482.522 188.078C483.964 188.238 486.207 187.437 486.047 185.515C485.887 183.592 483.323 182.631 481.721 182.471C476.274 181.99 471.628 177.344 468.745 172.698C466.982 169.815 465.541 166.771 464.259 163.727C462.657 160.363 461.536 156.838 461.055 153.153C460.574 149.949 452.724 148.828 453.045 152.833Z" fill="#000005"/>
<path d="M20.6507 223.163C20.6507 223.163 6.5526 236.14 3.98932 247.835C1.42604 259.53 26.8987 294.935 37.312 297.658C47.7254 300.382 53.6529 284.041 47.2447 268.02C40.8365 252 20.6507 223.163 20.6507 223.163Z" fill="white"/>
<path d="M17.4466 220.76C13.6016 224.284 10.2373 228.29 7.19343 232.455C3.1883 237.902 -0.816834 244.47 0.144397 251.359C0.945423 256.966 3.66891 262.413 6.3924 267.219C9.91692 273.467 13.922 279.395 18.4078 285.002C24.4956 292.532 37.1518 307.431 47.8856 298.299C54.1336 293.012 54.454 282.759 53.1723 275.39C51.8907 268.02 47.8856 260.651 44.2008 253.922C38.113 243.028 31.3844 232.615 24.1752 222.362C23.0537 220.6 21.1313 219.638 19.0486 219.959C17.767 220.119 16.8057 221.401 16.9659 222.682C16.9659 223.003 17.1262 223.323 17.2864 223.644C22.7333 231.333 27.8599 239.184 32.6661 247.194C36.3508 253.121 39.7151 259.209 42.5988 265.457C45.6427 272.026 47.4049 280.516 45.0019 287.726C44.2008 290.289 42.759 293.173 40.1957 294.294C39.5549 294.615 38.7539 294.775 37.9528 294.615L37.1518 294.454C37.312 294.454 38.113 294.935 37.4722 294.615C36.8314 294.294 36.6712 294.134 36.1906 293.974C37.312 294.454 36.0304 293.814 35.71 293.653L34.4283 292.692C33.9477 292.372 33.6273 292.051 33.1467 291.731L32.6661 291.25C32.3456 290.93 32.3456 290.93 32.6661 291.25L32.1854 290.77C30.1028 288.847 28.1803 286.764 26.4181 284.682C22.2527 279.876 18.568 274.749 15.3639 269.462C12.32 264.816 9.91692 259.85 8.15466 254.403C7.83425 253.282 7.51384 252.16 7.51384 251.039C7.51384 251.68 7.51384 250.238 7.51384 250.077C7.51384 249.597 7.67404 249.116 7.67404 248.636C8.79548 244.791 10.5577 241.106 12.9608 237.742C16.0047 233.256 19.6894 229.091 23.6946 225.246C26.7385 222.682 20.1701 218.357 17.4466 220.76Z" fill="#000005"/>
<path d="M61.0224 369.43C58.4591 370.231 50.7692 383.528 27.3793 370.231C3.98932 356.934 23.2139 337.55 40.1957 345.56C50.1284 350.366 57.8183 359.017 61.0224 369.43Z" fill="white"/>
<path d="M58.6193 366.386C57.1775 367.187 55.8958 368.149 54.6142 369.43C53.8132 370.071 52.8519 370.712 51.8907 371.193C50.6091 371.833 49.1672 372.314 47.7254 372.634C43.7202 373.275 39.5549 372.955 35.8702 371.513C32.9865 370.552 30.1028 369.27 27.5395 367.668C26.4181 367.027 25.2966 366.386 24.1752 365.585C24.015 365.425 23.5344 365.105 23.214 364.784C22.8935 364.464 22.7333 364.464 22.5731 364.144C22.4129 363.823 21.9323 363.343 22.2527 363.823C21.1313 362.702 20.1701 361.1 20.0098 359.498C20.0098 359.818 20.0098 358.857 20.0098 358.697C20.0098 358.376 20.0098 357.896 20.0098 357.415C20.0098 356.774 20.1701 355.973 20.4905 355.332C21.6119 352.288 23.8548 349.885 26.7385 348.604C30.1028 347.002 33.9477 346.521 37.6324 347.482C41.958 348.764 45.9631 351.167 49.3274 354.531C50.9295 356.133 52.3713 357.735 53.653 359.658L54.1336 360.299C54.454 360.619 53.8132 359.978 54.2938 360.459L55.0948 361.901C55.5754 362.702 55.8958 363.503 56.3764 364.304C56.5366 364.624 56.6969 365.105 56.8571 365.425C57.0173 365.746 56.6969 364.784 57.0173 365.746C57.1775 366.226 57.4979 366.867 57.6581 367.348C57.8183 367.828 57.9785 368.309 58.1387 368.79C58.7795 370.712 60.3816 372.154 62.304 372.634C64.0663 372.955 64.8673 371.994 64.5469 370.231C62.9449 363.823 58.9397 357.896 54.454 353.089C47.2447 345.239 35.8702 338.19 24.816 341.394C20.9711 342.516 17.6068 344.919 15.3639 348.443C13.2812 352.288 13.121 356.934 15.0435 360.779C17.767 366.707 23.3742 370.712 28.9813 373.756C34.4283 376.96 40.5161 378.722 46.9243 379.203C51.0897 379.363 55.0948 378.402 58.6193 376.159C59.901 375.358 61.0224 374.557 62.1438 373.596L63.2653 372.795C63.4255 372.634 63.5857 372.634 63.7459 372.474C63.4255 372.634 63.1051 372.955 63.7459 372.474C66.4694 371.513 61.3428 365.425 58.6193 366.386Z" fill="#000005"/>
<path d="M81.6889 286.444C81.6889 286.444 114.05 327.296 84.4124 359.658C54.7744 392.019 31.865 353.89 33.4671 338.991C35.0691 324.092 47.7254 318.325 53.0121 320.888C53.0121 320.888 49.9682 282.759 81.6889 286.444Z" fill="white"/>
<path d="M78.3246 287.726C82.6501 293.333 86.0144 299.421 88.4175 305.989C93.5441 318.805 94.8257 333.064 89.0583 345.72C85.3736 353.57 79.6062 360.138 72.5572 364.945C69.9939 366.707 67.1102 367.988 64.0663 368.629C63.4255 368.79 62.6244 368.79 61.9836 368.95H61.1826C61.1826 368.95 59.901 368.95 60.5418 368.95C59.901 368.95 59.2601 368.95 58.6193 368.79L57.6581 368.629C56.6969 368.469 57.6581 368.629 57.0173 368.469L55.255 367.828L54.6142 367.508C54.6142 367.508 53.3325 366.867 54.1336 367.348C52.8519 366.707 51.7305 366.066 50.4488 365.105L50.2886 364.945C49.9682 364.784 49.6478 364.464 49.3274 364.144C49.007 363.823 48.3662 363.343 47.8856 362.862C46.9243 362.061 46.1233 361.1 45.3223 360.138C42.1182 356.133 39.7151 351.648 38.2732 346.681C37.6324 344.599 37.312 342.516 37.312 340.273C37.4722 336.749 38.4334 333.224 40.3559 330.34C41.958 327.777 44.2008 325.694 46.7641 324.252C47.4049 324.092 48.206 323.772 48.8468 323.772L49.4876 323.612C48.6866 323.772 49.9682 323.612 50.1284 323.612H50.7693C51.2499 323.612 50.2886 323.451 51.0897 323.612C51.2499 323.612 51.4101 323.612 51.5703 323.612C49.9682 323.451 52.3713 324.092 50.9295 323.451C52.6917 324.252 57.0173 324.573 56.8571 321.369C56.6969 320.247 56.6969 318.966 56.8571 317.844C57.0173 316.723 56.8571 315.281 57.0173 313.999C57.0173 313.359 57.1775 312.557 57.1775 311.756C57.1775 311.436 57.3377 310.955 57.3377 310.475C57.4979 309.834 57.3377 310.315 57.3377 310.475C57.3377 310.315 57.3377 309.994 57.4979 309.834C58.1387 306.309 59.2601 302.785 60.702 299.581C60.702 299.421 61.0224 298.94 60.702 299.421C60.8622 299.26 60.8622 299.1 61.0224 298.94L61.6632 297.819C62.1438 297.018 62.7846 296.217 63.4255 295.416C64.5469 294.134 65.8286 292.852 67.2704 292.051C71.5959 289.648 76.5623 288.847 81.3684 289.488C83.1307 289.648 85.2134 288.687 85.2134 286.764C84.893 284.842 83.2909 283.24 81.2082 283.08C70.9551 281.958 60.5418 284.682 54.6142 293.813C50.4488 300.222 48.8468 307.912 48.5264 315.441C48.3662 317.043 48.3662 318.805 48.5264 320.408L54.454 318.325C48.5264 315.441 41.6376 317.684 36.8314 322.01C31.3844 326.976 28.5007 334.025 28.8211 341.394C30.1028 353.57 36.9916 364.624 47.2447 371.193C53.0121 374.877 59.901 376.159 66.4694 374.877C75.6011 372.955 83.1307 366.547 88.8981 359.658C99.9523 346.361 102.355 329.219 98.0298 312.718C95.4665 302.785 90.8206 293.493 84.5726 285.323C83.2909 283.56 81.2083 282.92 79.2858 283.56C77.8439 284.041 77.0429 285.643 77.5235 287.085C78.0042 287.245 78.1644 287.405 78.3246 287.726Z" fill="#000005"/>
<path d="M51.7305 318.485C53.0121 328.097 57.0172 337.389 62.9448 344.919C62.9448 345.079 63.5857 345.88 63.9061 345.72C64.2265 345.56 63.9061 344.599 63.9061 344.438C63.4255 342.516 62.6244 340.914 61.503 339.312C60.5418 338.03 59.5805 336.748 58.7795 335.467C58.1387 334.506 59.0999 336.108 58.6193 335.146C58.6193 334.986 57.8183 333.705 58.2989 334.506C58.1387 334.185 57.9785 333.865 57.8183 333.544L57.4979 332.904C57.6581 333.384 57.6581 333.384 57.4979 332.904C57.3377 332.423 57.3377 332.423 57.1774 332.263C57.0172 332.103 57.0172 331.782 57.1774 332.103C57.3377 332.423 57.1774 332.263 57.1774 331.942C57.1774 331.622 57.0172 331.462 57.0172 331.302C56.857 330.661 56.5366 330.02 56.3764 329.379C55.8958 327.777 55.5754 326.175 55.4152 324.573C55.0948 322.811 54.2938 321.048 53.3325 319.446C53.1723 318.966 51.5703 316.883 51.7305 318.485Z" fill="#000005"/>
<path d="M77.2031 292.372C77.2031 292.372 243.977 308.552 284.028 288.206C284.028 288.206 290.436 42.9321 203.124 27.0718C48.6866 -1.12435 66.95 197.21 77.2031 292.372Z" fill="white"/>
<path d="M79.6062 294.134C85.2134 294.615 90.9808 295.095 96.5879 295.576C110.686 296.697 124.944 297.658 139.042 298.459C156.985 299.421 174.928 300.062 192.871 300.222C210.494 300.382 228.116 300.062 245.579 298.62C258.555 297.498 272.173 296.217 284.348 291.25C285.47 290.77 286.431 290.289 287.392 289.808L287.713 289.648C287.873 281.638 287.873 273.628 287.713 265.457C287.392 246.072 286.431 226.527 284.829 207.142C282.907 182.791 279.542 158.6 274.736 134.73C270.09 112.301 263.682 89.712 253.108 69.2058C244.297 52.0638 231.641 36.3637 213.538 28.834C202.003 24.0279 188.866 22.7462 176.53 22.4258C164.355 21.785 152.019 23.3871 140.324 26.9116C119.978 33.3198 103.637 47.4178 92.5828 65.521C80.7276 85.0661 74.6398 107.815 71.1153 130.244C67.2704 155.236 66.4694 180.709 67.1102 206.021C67.751 229.571 69.5133 252.961 71.9163 276.351C72.3969 281.157 72.8776 286.124 73.5184 290.93C73.6786 292.211 76.7225 293.173 77.6837 293.653C78.3245 293.814 80.8878 294.775 80.7276 293.493C79.1256 279.555 77.8439 265.457 76.7225 251.519C75.4409 235.499 74.4796 219.318 74.3194 203.298C73.999 186.636 74.4796 169.815 75.9215 153.153C77.2031 137.133 80.0868 121.433 84.0919 106.053C87.7767 91.9549 93.544 78.4977 101.234 66.3221C108.764 54.7873 118.696 45.175 130.231 38.1259C143.208 30.7565 157.786 26.7514 172.846 26.2708C181.977 25.9503 191.109 26.431 200.081 27.8728C201.202 28.033 202.323 28.1932 203.445 28.3534L205.367 28.6738L205.848 28.834C205.527 28.834 205.527 28.834 205.848 28.834C206.489 28.9942 207.13 29.1545 207.77 29.3147L208.732 29.6351L209.052 29.7953C209.853 30.1157 208.571 29.6351 209.052 29.7953C209.533 29.9555 210.334 30.1157 210.974 30.4361L211.936 30.7565C211.135 30.4361 211.776 30.7565 212.096 30.9167L213.858 31.7177C214.819 32.1983 213.378 31.3973 214.018 31.7177L215.14 32.1984C215.781 32.5188 216.261 32.8392 216.902 33.1596C216.261 32.8392 216.742 33.1596 217.062 33.3198L218.024 33.9606L219.786 35.082L220.106 35.2423L221.067 35.8831C223.31 37.4851 225.393 39.2474 227.315 41.1698C231.641 45.4954 235.486 50.1413 238.69 55.2679C246.22 67.1231 252.147 79.9395 256.473 93.3968C261.439 108.296 265.444 123.676 268.328 139.215C271.372 155.076 273.615 171.096 275.377 187.277C276.979 201.856 278.1 216.595 278.902 231.333C279.542 242.708 279.863 254.243 280.023 265.617C280.183 271.865 280.183 278.274 280.023 284.522C280.023 285.002 280.023 285.643 280.023 286.124C280.023 286.284 280.023 286.284 280.023 286.444C280.023 286.604 278.421 287.085 278.1 287.245C272.814 289.328 267.367 290.93 261.76 291.891C246.38 294.935 230.359 295.736 214.659 296.056C196.236 296.537 177.812 296.377 159.549 295.736C143.047 295.095 126.546 294.294 110.045 293.173C99.792 292.532 89.3787 291.731 79.1256 290.77L74.8 290.449C73.3582 290.289 73.0378 290.93 74.1592 291.891C75.9215 293.173 77.6837 293.974 79.6062 294.134Z" fill="#000005"/>
<path d="M79.9266 252.481C84.7328 253.121 89.3787 253.762 94.1849 254.403C106.36 255.845 118.696 256.966 130.872 257.928C147.213 259.049 163.714 259.69 180.215 259.69C197.998 259.69 215.941 258.568 233.563 256.325C249.584 254.243 265.604 250.878 280.504 244.63C282.106 243.99 283.708 243.189 285.47 242.388C290.116 240.305 284.989 234.698 281.144 236.46C267.046 243.028 252.147 246.553 236.768 248.956C219.626 251.519 202.484 252.801 185.181 252.961C168.52 253.121 151.859 252.641 135.358 251.68C122.541 250.878 109.885 249.757 97.2288 248.315C91.4614 247.674 85.5338 246.553 79.7664 246.072H79.446C77.6837 245.752 76.0817 247.034 75.7613 248.636C75.7613 248.796 75.7613 248.956 75.7613 249.116C75.9215 251.199 78.0041 252.16 79.9266 252.481Z" fill="#000005"/>
<path d="M120.939 277.152C123.947 277.152 126.386 274.713 126.386 271.705C126.386 268.697 123.947 266.258 120.939 266.258C117.931 266.258 115.492 268.697 115.492 271.705C115.492 274.713 117.931 277.152 120.939 277.152Z" fill="#000005"/>
<path d="M124.464 271.545C124.464 272.026 124.303 272.506 124.303 272.987C124.464 272.506 124.303 272.987 124.303 273.147C124.303 273.307 124.303 273.307 124.143 273.467L123.983 273.788C123.983 273.948 123.663 274.268 123.983 273.948C123.823 274.108 123.663 274.268 123.502 274.589C123.342 274.909 123.182 274.909 123.342 274.749C123.502 274.589 123.182 274.909 123.182 274.909L122.541 275.23C122.862 275.23 122.221 275.39 122.541 275.23C122.381 275.23 122.221 275.39 122.061 275.39L121.74 275.55H121.9C121.74 275.55 121.42 275.71 121.099 275.71H120.619H120.298C120.779 275.71 120.298 275.71 120.138 275.71L119.818 275.55C119.818 275.55 119.337 275.39 119.658 275.55C119.978 275.71 119.497 275.39 119.497 275.39C119.337 275.39 119.337 275.23 119.177 275.23C119.017 275.23 118.536 274.749 118.856 275.069C118.696 274.909 118.376 274.589 118.216 274.429C118.055 274.268 118.055 274.268 117.895 274.108L117.575 273.467C117.575 273.307 117.415 273.147 117.415 272.987C117.415 272.666 117.254 272.346 117.254 272.026C117.254 272.026 117.254 271.545 117.254 271.865C117.254 272.186 117.254 271.705 117.254 271.705C117.254 271.385 117.254 271.225 117.415 270.904C117.415 270.744 117.415 270.744 117.415 270.584C117.254 270.904 117.415 270.584 117.415 270.424C117.575 270.103 117.735 269.943 117.735 269.622C117.895 269.462 117.735 269.462 117.735 269.622C117.735 269.462 117.895 269.462 118.055 269.302C118.216 269.142 118.696 268.661 118.376 268.982L118.856 268.661L119.177 268.501C119.497 268.341 118.856 268.661 119.177 268.501C119.497 268.341 119.658 268.181 119.818 268.181H120.298C120.459 268.181 120.619 268.181 120.779 268.181C120.619 268.181 120.459 268.02 120.779 268.181H121.26C121.26 268.181 121.9 268.341 121.42 268.181C121.74 268.181 122.061 268.341 122.221 268.501L122.701 268.821C122.862 268.821 122.862 268.982 122.862 268.982L123.182 269.142C123.022 268.982 123.022 268.982 123.022 269.142C123.022 269.302 123.342 269.462 123.502 269.783L123.823 270.103C123.502 269.783 123.823 270.103 123.823 270.263C123.983 270.584 124.143 270.744 124.143 271.064C124.143 271.225 124.303 271.385 124.303 271.705C124.303 272.026 124.303 272.346 124.303 272.666C124.303 273.628 125.745 274.268 126.546 274.108C127.508 273.948 128.309 273.147 128.309 272.026C128.148 269.142 126.226 266.418 123.502 265.457C120.459 264.496 117.094 265.297 115.172 267.7C113.249 269.943 112.929 273.307 114.531 275.87C116.133 278.594 119.337 279.876 122.381 279.395C125.745 278.754 128.309 275.87 128.469 272.506C128.469 271.545 127.828 270.744 126.867 270.584C125.906 269.943 124.624 270.424 124.464 271.545Z" fill="#000005"/>
<path d="M98.8308 277.633C102.193 277.633 104.919 274.907 104.919 271.545C104.919 268.183 102.193 265.457 98.8308 265.457C95.4686 265.457 92.743 268.183 92.743 271.545C92.743 274.907 95.4686 277.633 98.8308 277.633Z" fill="white"/>
<path d="M102.996 271.225C102.996 273.307 101.715 275.23 99.792 276.031H99.6318L99.3114 276.191L98.991 276.351C98.5104 276.511 99.1512 276.351 98.8308 276.351H98.3502C97.8696 276.351 98.5104 276.351 98.19 276.351H97.7094C97.2288 276.351 98.0298 276.511 97.5492 276.351L97.0686 276.191L96.5879 276.031L96.2675 275.87C96.1073 275.71 95.7869 275.39 95.6267 275.23C95.7869 275.39 95.6267 275.23 95.6267 275.069C95.6267 274.909 95.4665 274.749 95.3063 274.749C95.1461 274.589 95.1461 274.268 94.9859 274.108C94.8257 273.628 94.6655 273.147 94.6655 272.666C94.6655 271.545 94.8257 270.584 95.4665 269.622C95.9471 268.821 96.7482 268.02 97.7094 267.7L98.0298 267.54C98.0298 267.54 98.5104 267.38 98.19 267.38C98.3502 267.38 98.6706 267.219 98.8308 267.219C98.8308 267.219 99.3114 267.219 98.991 267.219H99.4716C99.4716 267.219 99.9523 267.219 99.6318 267.219H100.112C100.593 267.219 99.792 267.059 100.273 267.219L100.753 267.38C100.112 267.219 101.394 267.86 100.913 267.54L101.234 267.7C101.234 267.7 101.715 268.181 101.554 267.86C101.715 268.02 101.875 268.181 102.035 268.501C102.355 268.821 101.875 268.341 102.195 268.661C102.355 268.821 102.355 268.982 102.516 268.982C102.676 268.982 102.836 269.462 102.836 269.622C102.836 269.943 102.996 270.584 102.996 271.225C102.996 271.545 103.477 272.026 103.637 272.186C104.118 272.506 104.598 272.666 105.079 272.827C105.72 272.827 106.841 272.827 106.841 271.865C106.681 265.137 96.9084 261.612 92.4226 266.739C90.5001 268.982 90.3399 272.186 91.7818 274.749C93.7042 277.633 97.2288 279.235 100.753 278.594C104.118 278.113 106.681 275.069 106.681 271.705C106.681 271.385 106.2 270.904 106.04 270.744C105.559 270.424 105.079 270.263 104.598 270.103C103.957 270.263 102.996 270.424 102.996 271.225Z" fill="#000005"/>
<path d="M141.926 109.417C135.358 107.495 130.872 100.766 131.192 93.2366C131.673 82.0222 140.004 65.8415 146.252 63.4384C155.543 59.7537 224.272 52.3842 236.127 64.72C246.54 75.4538 252.147 90.0325 251.667 104.932C251.026 114.544 171.083 117.748 141.926 109.417Z" fill="#000005"/>
<path d="M142.407 107.815C136.479 106.053 134.557 98.2029 135.037 92.7559C135.838 86.1875 138.081 79.7793 141.445 74.1721C143.368 70.8078 146.091 66.3221 150.097 65.0404C152.66 64.3996 155.223 63.7588 157.786 63.4384C166.277 61.9965 175.89 61.1955 184.861 60.5547C194.954 59.7536 205.207 59.7536 215.3 60.3945C219.465 60.5547 223.47 61.1955 227.476 62.1567L228.277 62.3169C228.116 62.3169 227.476 61.9965 228.116 62.3169L229.238 62.6373L230.359 62.9578C231.16 63.2782 229.719 62.6373 230.199 62.9578L230.84 63.2782C231 63.2782 232.122 63.919 231.481 63.5986C230.84 63.2782 231.961 63.919 232.122 63.919C232.762 64.2394 231.961 63.7588 232.282 64.0792C232.602 64.3996 232.762 64.5598 233.083 64.72C242.695 74.0119 248.142 88.7508 247.982 102.048C247.982 102.689 247.982 103.49 247.822 104.131C247.822 104.291 247.661 104.451 247.661 104.451C247.501 104.771 247.822 104.291 247.501 104.611C246.86 105.252 246.059 105.893 245.258 106.213C245.739 106.053 244.938 106.373 244.938 106.373L244.137 106.694C243.496 107.014 242.855 107.174 242.215 107.335C240.612 107.815 239.01 108.296 237.408 108.616C228.437 110.379 219.305 111.34 210.173 111.66C199.119 112.301 187.905 112.301 176.691 111.981C171.404 111.82 165.957 111.5 160.67 110.859C156.184 110.539 151.699 109.898 147.373 108.937L144.489 108.296L143.208 107.975C143.047 107.975 141.285 107.495 142.407 107.815C141.445 107.495 138.562 106.694 138.081 108.136C137.6 109.577 140.484 110.699 141.285 111.019C151.218 113.583 161.471 115.185 171.724 115.505C183.9 116.306 196.075 116.466 208.251 115.986C218.825 115.665 229.398 114.704 239.811 113.102C243.336 112.461 246.86 111.66 250.225 110.378C251.987 109.738 254.711 108.776 255.351 106.694C255.992 104.611 255.672 102.208 255.512 100.286C255.351 96.9213 254.711 93.557 253.909 90.1926C251.987 82.8232 248.623 75.9344 244.137 69.8466C241.093 65.6812 237.729 62.3169 232.923 60.2343C228.597 58.472 223.951 57.3506 219.305 56.87C208.571 55.5883 197.517 55.2679 186.784 55.9087C176.53 56.3893 166.277 57.1904 156.184 58.7924C152.82 59.273 149.295 59.9138 145.931 60.7149C142.407 61.6761 139.363 63.7588 137.28 66.8027C133.115 72.4099 130.071 78.8181 128.469 85.7069C126.867 92.4355 127.187 99.4846 132.154 104.932C134.717 107.815 137.921 109.738 141.606 110.859C142.567 111.18 145.451 111.981 145.931 110.539C146.412 109.097 143.208 108.136 142.407 107.815Z" fill="#000005"/>
<path d="M209.052 247.034L202.644 246.873C202.644 246.873 202.644 243.829 202.804 238.863H209.212C209.052 243.99 209.052 247.034 209.052 247.034ZM209.212 231.013H202.804C202.804 228.61 202.804 225.886 202.804 223.003H209.212C209.372 225.726 209.212 228.45 209.212 231.013ZM209.372 214.993H202.964C202.964 212.429 202.964 209.706 202.964 206.982H209.372C209.372 209.546 209.372 212.269 209.372 214.993ZM209.372 198.972H202.964V198.812C202.964 196.248 202.964 193.685 202.964 190.962H209.372C209.372 193.525 209.372 196.248 209.372 198.812V198.972ZM202.964 182.951C202.964 180.228 202.964 177.665 202.964 174.941H209.372C209.372 177.665 209.372 180.228 209.372 182.951H202.964ZM202.804 166.931C202.804 164.207 202.644 161.484 202.644 158.921L209.052 158.76C209.052 161.324 209.212 164.047 209.212 166.771L202.804 166.931ZM202.484 150.91C202.323 148.187 202.323 145.463 202.163 142.9L208.571 142.74C208.732 145.303 208.732 148.027 208.892 150.75L202.484 150.91ZM201.843 135.05V133.929L208.251 133.608V134.73L201.843 135.05Z" fill="#000005"/>
<path d="M166.598 90.9937C166.598 90.5131 166.598 89.8722 166.598 89.3916C166.598 89.2314 166.598 88.911 166.758 88.7508C166.918 88.2702 166.598 88.911 166.918 88.4304C167.078 87.9498 167.238 87.6294 167.399 87.1487L167.559 86.8283L167.399 86.9885C167.559 86.8283 167.719 86.6681 167.879 86.5079L168.04 86.1875C168.36 85.8671 168.2 86.0273 167.879 86.3477C167.879 86.1875 168.2 86.0273 168.36 85.8671C169.001 85.3865 167.719 86.3477 168.36 85.8671L168.68 85.5467L168.2 85.8671L168.52 85.7069L168.04 85.8671C168.2 85.8671 169.001 85.5467 168.36 85.7069C167.719 85.8671 168.68 85.5467 168.841 85.7069H168.52H169.001C169.161 85.7069 169.802 85.7069 169.161 85.7069L169.802 85.8671C169.962 85.8671 170.282 86.0273 170.443 86.0273L170.923 86.1875C170.763 86.1875 170.763 86.1875 170.923 86.1875C171.724 86.6681 172.525 87.1487 173.326 87.7896C174.608 89.0712 175.409 90.6733 175.569 92.4355C175.729 94.0376 178.132 93.7172 179.094 93.2365C180.055 92.9161 181.016 92.2753 181.817 91.6345C182.298 91.1539 182.939 90.5131 182.939 89.712C182.778 86.9885 181.497 84.5855 179.414 82.9834C177.171 81.2211 174.288 80.4201 171.404 80.9007C165.476 81.7018 158.748 86.9885 159.388 93.5569C159.549 95.159 161.791 94.8386 162.913 94.358C163.874 94.0376 164.835 93.3967 165.636 92.7559C165.957 92.2753 166.758 91.4743 166.598 90.9937Z" fill="white"/>
<path d="M216.421 91.4743C216.421 91.1539 216.421 90.9937 216.421 90.6733C216.421 90.513 216.421 90.513 216.421 90.3528C216.421 90.1926 216.421 90.0324 216.421 90.5131C216.261 90.1926 216.582 89.3916 216.742 89.2314C216.902 89.0712 217.062 88.4304 216.742 89.0712C216.902 88.911 216.902 88.5906 217.062 88.4304C217.222 87.9498 217.543 87.6293 217.863 87.1487C218.024 86.9885 218.504 86.5079 218.024 86.8283L218.504 86.3477C218.825 86.0273 219.145 85.8671 219.626 85.5467C219.786 85.3865 220.106 85.2263 220.266 85.2263C220.427 85.2263 220.427 85.2263 220.106 85.2263L220.427 85.0661C220.907 84.9059 221.388 84.7457 221.868 84.7457C222.509 84.5854 221.228 84.7457 222.029 84.7457H222.669L223.31 84.9059C223.951 84.9059 222.669 84.7457 223.47 84.9059L224.432 85.2263L224.592 85.3865C224.912 85.5467 224.912 85.5467 224.432 85.2263C224.752 85.5467 225.233 85.8671 225.553 86.0273C225.073 85.7069 224.912 85.5467 225.233 85.8671L225.393 86.0273C225.553 86.1875 226.194 86.8283 225.713 86.3477C225.233 85.8671 225.874 86.5079 225.874 86.6681C225.874 86.8283 226.194 87.6294 225.874 86.5079C226.034 86.6681 226.034 86.8283 226.194 87.1487L226.354 87.4691C226.514 87.7896 226.354 87.6293 226.194 87.1487C226.194 87.3089 226.354 87.6293 226.354 87.7896C226.354 88.11 226.354 88.11 226.354 87.4691C226.354 87.6294 226.354 87.7896 226.354 87.9498C226.514 90.0324 227.636 91.7947 229.558 92.5957C230.68 93.0763 231.961 92.7559 232.602 91.6345C232.762 91.3141 232.923 90.8335 232.762 90.3528C232.602 86.8283 231 83.6242 228.277 81.2211C226.034 78.9783 223.15 77.8568 220.106 77.6966C214.179 78.017 209.693 82.9834 210.013 88.7508C210.013 88.911 210.013 88.911 210.013 89.0712C210.173 91.1539 211.295 92.9161 213.217 93.7172C214.018 94.0376 214.819 94.0376 215.46 93.5569C216.101 92.9161 216.421 92.2753 216.421 91.4743Z" fill="white"/>
<path d="M433.5 28.3534V4.96346C433.5 3.68182 430.776 5.12366 430.295 5.28387C429.334 5.76448 428.533 6.40531 427.732 7.04613C427.412 7.36654 426.611 8.00736 426.611 8.64818V32.0381C426.611 33.3198 429.334 31.8779 429.815 31.7177C430.776 31.2371 431.577 30.5963 432.378 29.9555C432.859 29.4749 433.66 28.834 433.5 28.3534Z" fill="black"/>
<path d="M468.905 42.2913C477.075 28.5136 487.489 16.1778 499.664 5.92469C503.029 3.2012 496.781 -1.76516 493.737 0.637917C481.081 11.2115 470.347 24.0279 461.856 38.2861C459.773 41.8107 466.822 45.8158 468.905 42.2913Z" fill="black"/>
<path d="M490.693 67.7639L495.659 62.7975C495.98 62.4771 495.339 62.3169 495.179 62.3169C494.858 62.3169 494.538 62.3169 494.057 62.3169C493.577 62.3169 493.096 62.4771 492.776 62.4771C491.814 62.6373 490.693 62.9578 489.732 63.2782C489.091 63.4384 488.61 63.7588 488.13 64.2394L483.163 69.2058C482.843 69.5262 483.484 69.6864 483.644 69.6864C483.964 69.6864 484.285 69.6864 484.605 69.6864C485.086 69.6864 485.566 69.5262 486.047 69.5262C487.008 69.366 487.969 69.0455 489.091 68.7251C489.571 68.5649 490.212 68.2445 490.693 67.7639Z" fill="black"/>
<path d="M494.057 89.712H519.049C520.972 89.712 522.894 88.7508 523.855 86.9885C524.496 85.2263 522.894 84.2651 521.292 84.2651H496.3C494.378 84.2651 492.455 85.2263 491.494 86.9885C490.853 88.7508 492.615 89.712 494.057 89.712Z" fill="black"/>
</svg>
