<svg transform="scale(1)" version="1.1" id="MKhvtzotEA" xmlns="http://www.w3.org/2000/svg" xmlns:xlink="http://www.w3.org/1999/xlink" x="0px" y="0px" viewBox="0 0 500 500" xml:space="preserve" class="pbimage_pbimage__wrapper__image__0LEis false"><title>Artificial Intelligence 2</title><style type="text/css"> .st0{fill:#000005;} .st1{fill:#FFFFFF;} .st2{opacity:0.62;} .st3{fill:#59BE4C;} .st4{opacity:0.63;} .st5{opacity:0.76;}
 .st3{fill:#59BE4C;}
 .st1{fill:#FFFFFF;}
 .st0{fill:#000005;}</style><g id="robot"><path class="st0" d="M91.6,295.5c0,0,34.7,45.4,51.5,43.6s25.1-83.4,25.1-83.4L176,227c0,0-1.1-23.8-9.6-6.3s-23.8,137.7-44.7,63.2
		L91.6,295.5z" fill="#000005"></path><path class="st1" d="M165.1,292.4c0,0-12.8-1.6-19.9,2.3s-14,32.4-10.9,38.9s14.1,2.4,19.5-7.9S165.1,292.4,165.1,292.4z" fill="#FFFFFF"></path><path class="st0" d="M164.1,290.2c-3.4-0.4-6.9-0.4-10.3-0.1c-4.1,0.3-9.2,1-12.1,4.3c-2.5,2.9-4.1,6.7-5.4,10.3
		c-1.6,4.6-2.9,9.3-3.7,14.1c-0.6,3.8-1.2,7.8-0.6,11.6c0.6,4,3.3,8,7.6,8.5c4.8,0.5,9.4-3,12.3-6.4c3.4-3.9,5.3-8.8,7.1-13.6
		c3-8.2,5.5-16.5,7.6-25c0.3-1.4-2.7-5.1-3.2-3.1c-1.6,6.5-3.6,13-5.7,19.4c-2.9,8.8-6.4,19.9-15.9,23.6c-1.6,0.7-3.4,0.9-5.1,0.5
		c-0.3-0.1-0.6-0.2-0.9-0.4c0,0-0.5-0.4-0.3-0.2l-0.1-0.2c0.2,0.2,0.2,0.2,0,0c-0.2-0.4,0.2,0.3,0-0.1c0.3,0.7,0-0.1-0.1-0.4
		c-0.1-0.5,0.1,0.4,0-0.1c0-0.2-0.1-0.3-0.1-0.5c0-0.3-0.1-0.7-0.1-1c-0.1-0.8-0.1-1.6,0-2.4c0.1-1.9,0.3-3.9,0.6-5.8
		c0.7-4.4,1.7-8.7,3.1-12.9c1.1-3.8,2.8-7.5,4.9-10.8c0.8-1.3,2-2.3,3.3-3c2.6-1.1,5.3-1.8,8.1-2c3.6-0.4,7.3-0.3,10.9,0.1
		c1.1,0.1,0.4-1.8,0.2-2.2C166,291.5,165.2,290.3,164.1,290.2z" fill="#000005"></path><path class="st0" d="M291.3,249.8c0,0,65.7,61.2,102.2-40.7h16.9c0,0-1.1,107.1-109.6,80.6L291.3,249.8z" fill="#000005"></path><path class="st1" d="M322,297.8c0,0,3.2-18.4,10.9-27.5s45.8-12.9,52.6-7.1s-2.7,20.3-17.6,25.8S322,297.8,322,297.8z" fill="#FFFFFF"></path><path class="st0" d="M324.4,297.9l0.2-0.9c0-0.2,0.1-0.3,0.1-0.5c0.1-0.5,0,0.2,0-0.2s0.2-1,0.3-1.5c0.6-2.8,1.4-5.5,2.3-8.2
		c1.1-3.3,2.4-6.5,3.9-9.7c0.7-1.4,1.5-2.7,2.4-4c0.4-0.6,0.8-1.1,1.3-1.7c0.1-0.1,0.5-0.5,0.1-0.1c0.2-0.2,0.4-0.4,0.5-0.5
		c0.3-0.3,0.7-0.6,1.1-0.8c0.2-0.1,0.4-0.3,0.6-0.4l0.3-0.2c-0.3,0.2-0.1,0.1,0.1,0c1-0.6,2.1-1.1,3.1-1.5c2.3-1,4.8-1.8,7.2-2.4
		c5.8-1.4,11.7-2.3,17.7-2.7c2.8-0.2,5.6-0.2,8.5,0c1.2,0.1,2.5,0.2,3.7,0.3l0.7,0.1l0.4,0.1c0.4,0.1-0.4-0.1-0.1,0s1,0.2,1.5,0.3
		s0.9,0.2,1.3,0.4l0.5,0.2c0.6,0.2-0.3-0.2,0.2,0.1c0.3,0.2,0.6,0.3,0.9,0.5s0.3,0.3,0,0c0.2,0.2,0.4,0.4,0.6,0.6
		c0.4,0.4,0-0.1,0.3,0.3c0.1,0.2,0.2,0.4,0.4,0.6c0.2,0.4,0.1,0.1,0,0c0,0.1,0.1,0.2,0.1,0.4c0.1,0.3,0.2,0.6,0.2,0.9
		c0.1,0.5,0,0,0,0.3c0,0.3,0,0.6,0,0.8c0,0.5,0,1-0.1,1.4c-1.5,6-7,10.9-12.1,14c-5.8,3.5-12.1,5-18.6,6.4
		c-10.6,2.3-21.4,4-32.2,5.2l-0.6,0.1c-1.2,0.1-2.1,1.2-1.9,2.4c0,0.1,0,0.1,0,0.2c0.4,1.2,1.7,2,3,1.7c10-1.1,20-2.6,29.9-4.6
		c6.9-1.4,14-2.9,20.3-6.1c6.6-3.3,13-8.5,16.1-15.4c2.1-4.7,1.8-10.8-3.3-13.4c-4.4-2.2-9.7-2.3-14.5-2.4c-6.5,0-13,0.6-19.4,1.8
		c-5.5,1.1-11.4,2.5-16.3,5.3c-2.2,1.2-4,2.8-5.5,4.8c-2.1,3-3.9,6.3-5.2,9.8c-2.2,5.4-3.8,11-4.9,16.7c-0.1,0.3-0.1,0.6-0.2,1
		c-0.2,1.3,1.3,2.2,2.4,2.3C323.1,300,324.2,299.2,324.4,297.9z" fill="#000005"></path><path class="st1" d="M160.3,329.9c0,0,8.6,85.7,77.4,80s65.7-77.5,65.7-77.5S242.1,304.6,160.3,329.9z" fill="#FFFFFF"></path><path class="st0" d="M157.9,330.5c0.3,2.6,0.7,5.3,1.2,7.9c1.3,6.6,3,13,5.2,19.3c2.7,8.1,6.4,15.8,11,23c5,8,11.5,15,19.2,20.5
		c8.7,6,18.8,9.7,29.3,10.6c12.8,1.2,25.7-0.7,37.7-5.4c9.8-3.9,18.6-10.1,25.4-18.1c5.7-6.9,10.2-14.7,13.1-23.1
		c2.4-6.8,4.1-13.9,5-21.1c0.5-3.9,0.7-7.9,0.7-11.8c0-0.2,0-0.4,0-0.5c-0.1-0.5-0.4-1-0.9-1.3c-2.3-1.1-4.8-1.9-7.2-2.8
		c-6.2-2.1-12.5-3.9-18.9-5.3c-9.8-2.2-19.8-3.7-29.8-4.5c-12.7-1.1-25.4-1.1-38.1,0c-15.2,1.3-30.3,4-45.1,8.2
		c-2,0.5-3.9,1.1-5.9,1.7C159,328.3,157.8,329.1,157.9,330.5c0.2,1.1,1.3,1.8,2.4,1.5c0.1,0,0.2,0,0.2-0.1
		c14.6-4.5,29.5-7.6,44.7-9.3c12.8-1.4,25.8-1.6,38.6-0.8c10,0.6,20,2,29.9,4c6.8,1.4,13.5,3.2,20.1,5.4c1.1,0.4,2.2,0.8,3.3,1.1
		l1.3,0.5l0.6,0.2l0.1,0c0.8,0.4,1.7,0.7,2.5,1l0.1,0l-0.9-1.3c0,0.7,0,1.4,0,2.1s0,1.6-0.1,2.4v0.7c0,0.5,0-0.4,0-0.1v0.5
		c0,0.6-0.1,1.1-0.1,1.7c-0.5,6.3-1.6,12.6-3.3,18.7c-0.3,0.9-0.5,1.9-0.8,2.8c-0.1,0.4-0.3,0.9-0.4,1.3l-0.2,0.6
		c0,0.1-0.1,0.2-0.1,0.4c-0.2,0.6,0.1-0.2,0,0.1c-0.7,1.9-1.4,3.8-2.3,5.7s-1.8,3.8-2.8,5.6c-0.5,1-1.1,1.9-1.7,2.9
		c-0.3,0.5-0.6,0.9-0.9,1.4c-0.4,0.6-0.4,0.6-0.7,1.1c-1.3,1.9-2.7,3.7-4.1,5.4c-0.7,0.9-1.5,1.7-2.3,2.5c-0.4,0.4-0.8,0.8-1.2,1.2
		l-0.6,0.6c-0.5,0.4-0.1,0.1-0.5,0.5c-1.8,1.7-3.7,3.2-5.7,4.7c-1.9,1.4-4,2.7-6.1,3.8c-10.5,5.7-22.4,8.3-34.5,8.5
		c-10.4,0.3-20.7-2.1-29.8-7c-8-4.6-14.8-10.8-20.2-18.2c-2.5-3.5-4.8-7.1-6.7-10.9c-1.9-3.7-3.7-7.5-5.2-11.3
		c-1.4-3.6-2.6-7.2-3.7-10.8c-0.2-0.8-0.5-1.6-0.7-2.5l-0.1-0.3c0,0.1,0.1,0.4,0,0l-0.1-0.6l-0.3-1.2c-0.4-1.5-0.7-2.9-1.1-4.4
		c-0.8-3.6-1.5-7.2-1.9-10.8c0-0.2,0-0.3-0.1-0.5C162.5,326.6,157.7,327.9,157.9,330.5z" fill="#000005"></path><path class="st0" d="M162.2,332.9c1.1,2,3.6,3.5,5.5,4.5c7.9,4.6,17.1,7,26,8.9c8.1,1.7,16.2,3,24.4,3.8c8.9,1,17.8,1.3,26.7,1
		c13-0.4,26-2.6,38.4-6.5c3.7-1.2,7.3-2.6,10.9-4.1c1.6-0.7,3.2-1.5,4.7-2.4l0.2-0.1c0.9-0.5-0.3-1.1-0.8-1.3
		c-1.1-0.4-2.3-0.3-3.4,0.1c-3.7,2.1-7.6,3.8-11.6,5.1c-10.8,3.8-22,6.1-33.4,7c-16.5,1.3-33.1-0.3-49.3-3.3
		c-9.4-1.7-18.8-3.9-27.1-8.2l-0.4-0.2l-0.2-0.1l-0.8-0.5c-0.5-0.3-0.9-0.6-1.4-0.9c-0.7-0.5-1.4-1-2-1.5l-0.3-0.3
		c-0.3-0.3,0,0-0.1-0.1l-0.5-0.5c-0.2-0.2-0.3-0.4-0.5-0.6c0,0,0,0,0-0.1C166.4,331.5,161.7,331.8,162.2,332.9L162.2,332.9z" fill="#000005"></path><path class="st0" d="M249,406.7l-3.4-2.2l1.7,1.1l-1.7-1c0.6-1.3,1.1-2.7,1.3-4.1l3.9,0.9C250.5,403.2,249.9,405,249,406.7z
		 M251.8,396.3l-3.9-0.6c0.2-1.5,0.4-3.1,0.6-4.9l4,0.4C252.3,393,252.1,394.7,251.8,396.3L251.8,396.3z M253,386.2l-4-0.3
		c0.1-1.5,0.2-3.2,0.3-4.9l4,0.2C253.2,383,253.1,384.6,253,386.2z M253.5,376.1l-4-0.1c0-1.6,0.1-3.2,0.1-5l4,0.1
		C253.6,372.9,253.6,374.5,253.5,376.1L253.5,376.1z M253.7,366.1h-4v-0.4c0-1.5,0-3,0-4.6h4c0,1.6,0,3.2,0,4.7V366.1z M249.6,356.1
		c0-0.9,0-1.7-0.1-2.6l4-0.1c0,0.9,0,1.8,0.1,2.6L249.6,356.1z" fill="#000005"></path><path class="st0" d="M181.3,288.8c0,0-15,7.7-12.3,11s9,7.7,9,7.7s-14.7,4.7-9.7,7.3s12.3,7,12.3,7s-12,6.7-9.7,10
		s74.1,18.7,121.4-1c0,0,0-4.7-5.3-10c0,0,8.3-1.7,7.3-4s-7-10-7-10s11.3-0.7,9.3-5.7s-8-12.7-8-12.7L181.3,288.8z" fill="#000005"></path><path class="st0" d="M179.3,287.8c-3.2,1.6-6.2,3.5-9,5.6c-1.5,1.1-3.3,2.5-3.9,4.3c-0.8,2.2,2.2,4.2,3.6,5.4c2,1.7,4,3.3,6.2,4.8
		l-0.1-1.4c-3.1,0.9-6.2,2.2-8.9,3.9c-1.1,0.7-2.8,1.9-2,3.5c0.5,1.1,2,1.7,3,2.3c1.5,0.8,3.1,1.7,4.6,2.6c2.2,1.2,4.4,2.5,6.6,3.8
		l-0.5-1.7c-2.8,1.6-14.9,8.6-8.6,12.1c2,1,4,1.7,6.1,2.2c3.2,0.9,6.4,1.6,9.7,2.2c9.9,1.9,19.9,3.2,30,3.9
		c12.3,0.9,24.7,0.9,37-0.1c12.7-1.1,25.3-3.3,37.3-7.7c1.4-0.5,2.8-1,4.2-1.6c0.2-0.1,0.4-0.3,0.5-0.5c0-4-2.9-7.9-5.5-10.6
		l-0.7,1.2c2-0.4,9.6-1.9,8.1-5.2c-1.1-2.1-2.5-4.1-4-6c-1-1.4-2-2.7-3-4l-1.2,1.3c3.2-0.2,12.1-1.2,10.9-6.2
		c-0.6-1.9-1.5-3.6-2.6-5.2c-1.1-1.8-2.2-3.5-3.4-5.1c-1.5-2.2-2.6-4.2-5.6-4.3c-5.7-0.1-11.4,0-17.1,0.1l-35.2,0.1l-36,0.1
		c-6.2,0-12.5-0.1-18.8,0.1h-0.3c-0.8,0-1.8,0.4-1.2,1.3s2.3,1.1,3.2,1.1L193,290l25.7-0.1l31.1-0.1l26.7-0.1c4.3,0,8.7,0.2,13,0
		h0.2l-3.2-1.1c1.3,1.7,2.5,3.4,3.7,5.1c1,1.5,2,3,2.8,4.5c0.6,1,1.6,2.5,1.5,3.7c-0.1,1.9-2.8,2.7-4.2,3.1c-1,0.2-2,0.4-3,0.5
		c-0.1,0-0.8,0.1-0.2,0h-0.4h-0.4c-0.7,0-1.9,0.4-1.2,1.3c2.4,2.8,4.5,5.8,6.5,9c0.3,0.6,0.6,0.9,0.1,1.4c-0.6,0.6-1.4,1-2.2,1.2
		c-1.3,0.5-2.7,0.9-4.1,1.2c-0.6,0.1-1.3,0.6-0.7,1.2c2,1.9,3.5,4.2,4.5,6.7c0.3,0.7,0.5,1.4,0.6,2.1c0,0.2,0,0.4,0.1,0.6
		c0.1,0.2,0-0.2,0,0l0.5-0.5c-11,4.6-22.8,7.1-34.7,8.4c-11.7,1.3-23.5,1.6-35.2,0.9c-5.4-0.3-10.7-0.7-16.1-1.3
		c-2.4-0.3-4.9-0.6-7.3-0.9c-1.1-0.2-2.2-0.3-3.4-0.5s-1.6-0.2-2.8-0.4c-3.6-0.6-7.2-1.3-10.8-2.2c-1.3-0.3-2.6-0.7-3.9-1
		c0.7,0.2,0,0-0.3-0.1l-0.8-0.2c-0.4-0.1-0.9-0.3-1.3-0.5l-0.5-0.2c-0.3-0.1,0.6,0.3,0,0c-0.1-0.1-0.2-0.1-0.4-0.2
		c-0.4-0.2,0.4,0.3,0.1,0.1s0.1,0.1,0.1,0.1s-0.1,0-0.1-0.3c0-0.6,0.2-1.1,0.4-1.6c1.1-1.6,2.5-2.9,4.1-3.9c1.3-1,2.7-1.9,4.2-2.8
		l0.7-0.4c1-0.5,0.1-1.3-0.5-1.7c-1.5-0.9-3-1.8-4.6-2.7c-1.4-0.8-2.8-1.6-4.2-2.4l-2-1.1l-1.1-0.6l-0.4-0.2c0.1,0.1,0.2,0.1,0,0
		s0,0,0,0c0,0.2-0.1-0.1-0.1-0.2c0,0.1,0.1-0.3,0.1-0.4c0.4-0.5,0.8-0.9,1.3-1.2c1.6-1,3.4-1.9,5.2-2.5c1.2-0.5,2.4-0.9,3.6-1.3
		c0.8-0.2,0.4-1.1-0.1-1.4c-1.6-1.1-3.1-2.3-4.6-3.5c-1.2-0.9-2.3-1.9-3.3-3c-0.2-0.2-0.5-0.5-0.7-0.8s-0.1,0-0.1-0.2
		c-0.1-0.2-0.1-0.4,0-0.6c0.4-1.5,2.1-2.8,3.3-3.7c1.7-1.3,3.5-2.5,5.4-3.6c1.1-0.7,2.3-1.3,3.4-1.9c1-0.5,0.1-1.4-0.5-1.7
		C181.7,287.6,180.4,287.4,179.3,287.8z" fill="#000005"></path><path class="st1" d="M186.6,309.9c9.4,0.4,18.9,0.7,28.3,0.9c17.4,0.3,34.9,0.4,52.2-0.7c7.5-0.5,15.3-1.1,22.6-3.2
		c0.3-0.1,2-0.5,1.6-1s-2.7,0.1-3.1,0.2l-0.9,0.2c-0.2,0-1,0.2-0.3,0.1c-0.7,0.1-1.3,0.3-2,0.4l-1.1,0.2l-0.5,0.1
		c-0.8,0.1-1.6,0.2-2.4,0.4c-3.5,0.5-6.5,0.8-10.2,1c-8.3,0.6-16.6,0.8-24.9,0.9c-15.4,0.2-30.9-0.1-46.4-0.6
		c-3.3-0.1-6.5-0.2-9.8-0.4c-1.2,0-2.4,0.2-3.5,0.7C185.7,309.5,185.7,309.9,186.6,309.9L186.6,309.9z" fill="#FFFFFF"></path><path class="st1" d="M193.1,326.2c7.8,0.9,15.6,1.4,23.4,1.9c15.8,0.8,31.7,1,47.4-0.5c8.3-0.8,16.7-2.1,24.6-4.7
		c1.9-0.6-1.3-4.4-3-3.8c-6.9,2.2-14.1,3.6-21.3,4.4c-8.1,0.9-16.2,1.3-24.4,1.4c-13.6,0.1-27.3-0.5-40.9-1.6
		c-2.7-0.2-5.4-0.5-8.1-0.8c-1.2-0.1-1,1.3-0.6,2C190.8,325.2,191.9,326,193.1,326.2L193.1,326.2z" fill="#FFFFFF"></path><path class="st1" d="M165.4,292.5c0,0,112.2,10.9,139.2-2.8c0,0,4.3-165.1-54.5-175.8C146.1,95,158.4,228.4,165.4,292.5z" fill="#FFFFFF"></path><path class="st0" d="M167.5,293.6c3.9,0.4,7.8,0.7,11.8,1c9.6,0.8,19.3,1.4,28.9,1.9c12.3,0.6,24.6,1.1,36.9,1.2
		c11.9,0.2,23.9-0.2,35.8-1.3c4.8-0.4,9.7-1.1,14.4-2c3.7-0.7,7.3-1.8,10.7-3.3c0.6-0.3,0.7-0.2,0.8-0.7c0-0.4,0-0.9,0-1.3
		c0-1.7,0-3.4,0-5.2c0-6.4-0.1-12.8-0.3-19.2c-0.3-9.2-0.8-18.4-1.5-27.5c-0.9-10.6-2-21.3-3.6-31.9c-1.6-10.9-3.8-21.7-6.6-32.3
		c-2.5-9.8-6-19.4-10.3-28.6c-3.8-7.7-8.5-15.1-15-20.9c-6.8-6-15.1-9.9-24.1-11.2c-11.5-1.8-23.5-2.1-34.9,0.9
		c-9.1,2.4-17.5,7.1-24.3,13.6c-6.7,6.6-12,14.6-15.6,23.3c-4.1,9.6-6.9,19.7-8.6,30c-1.9,11-2.9,22.2-3.2,33.4
		c-0.4,11.2-0.1,22.5,0.5,33.8c0.6,10.4,1.4,20.8,2.4,31.2c0.4,4.4,0.9,8.7,1.4,13.1c0.1,0.6,1.7,1.1,2.1,1.4
		C166,293.2,166.8,293.4,167.5,293.6c-0.9-9.5-1.9-18.9-2.7-28.4c-0.9-10.8-1.5-21.7-1.6-32.6c-0.2-11.2,0.1-22.5,1.1-33.7
		c0.9-10.7,2.8-21.4,5.6-31.8c2.5-9.5,6.4-18.5,11.6-26.8c4.9-7.7,11.5-14.2,19.4-19c8.8-5.2,18.8-7.6,28.9-8
		c6.2-0.2,12.4,0.1,18.6,1.1c2.3,0.3,4.6,0.8,6.9,1.4l0.6,0.2c0.1,0,0.7,0.2,0.3,0.1l0.6,0.2l0.3,0.1c0.5,0.2-0.5-0.2,0.1,0l0.6,0.3
		c0.4,0.2-0.5-0.2,0.1,0.1c0.2,0.1,0.8,0.4,0.1,0.1l0.7,0.3c0.5,0.3-0.3-0.2,0.2,0.1l0.6,0.3l0.3,0.2c0.3,0.2-0.3-0.2,0,0l0.6,0.4
		c0.8,0.5,1.4,0.9,2.2,1.5c1.5,1.1,2.9,2.4,4.3,3.7c2.9,3,5.5,6.2,7.8,9.7c5.1,8,9.1,16.7,12,25.7c3.3,10.2,6,20.6,7.9,31.1
		c2,10.6,3.5,21.4,4.7,32.1c1.1,9.9,1.8,19.7,2.3,29.6c0.4,7.7,0.6,15.4,0.7,23.1c0.1,4.2,0.1,8.4,0,12.6c0.1,0.4,0.1,0.7,0,1.1
		c-0.2,0.5-1.1,0.7-1.6,0.9c-3.6,1.4-7.4,2.5-11.2,3.1c-10.5,2-21.2,2.5-31.8,2.8c-12.4,0.4-24.8,0.2-37.2-0.3
		c-11.2-0.4-22.4-1-33.5-1.8c-7-0.5-13.9-1-20.9-1.6l-2.9-0.3c-0.4,0,1.3,1,1.4,1.1C165.5,293.1,166.5,293.5,167.5,293.6z" fill="#000005"></path><path class="st0" d="M165.5,265.1c3.2,0.5,6.5,0.9,9.7,1.3c8.2,1,16.5,1.8,24.8,2.3c11.1,0.8,22.2,1.2,33.4,1.2
		c11.9,0,23.8-0.7,35.5-2.2c10.9-1.5,21.8-3.7,32-7.9c1.1-0.5,2.2-1,3.3-1.5c0.8-0.4,2.3-1.3,2.2-2.4s-1.7-0.7-2.3-0.4
		c-9.2,4.4-19.3,6.7-29.5,8.3c-11.6,1.7-23.4,2.6-35.1,2.7c-11.1,0.2-22.2-0.2-33.3-0.9c-8.6-0.6-17.2-1.3-25.8-2.3
		c-3.9-0.4-7.8-1.1-11.6-1.5h-0.2c-1.2-0.1-2.4,0.4-3.2,1.4C164.8,263.8,164.3,265,165.5,265.1L165.5,265.1z" fill="#000005"></path><circle class="st0" cx="194.8" cy="278.6" r="3.7" fill="#000005"></circle><path class="st0" d="M197.2,278.5c0,0.3-0.1,0.7-0.1,1c0.1-0.2,0,0.1,0,0.1l-0.1,0.2c0,0.1-0.1,0.2-0.1,0.3s-0.2,0.3,0,0.1
		l-0.3,0.4l-0.1,0.1l-0.1,0.1c-0.1,0.1-0.3,0.2-0.4,0.3s0.1,0,0,0c-0.1,0-0.2,0.1-0.3,0.1l-0.2,0.1c0.3-0.1,0,0-0.1,0
		c-0.2,0-0.3,0.1-0.5,0.1c0,0,0.3,0,0,0h-0.3h-0.2c0.3,0-0.1,0-0.1,0l-0.2-0.1h-0.1l-0.1-0.1l-0.2-0.1l-0.2-0.1c-0.2-0.1,0,0,0,0
		c-0.1-0.1-0.3-0.3-0.4-0.4l-0.2-0.2c0,0,0.1,0.2,0,0c-0.1-0.1-0.2-0.3-0.2-0.4c0-0.1-0.1-0.2-0.1-0.3s0.1,0.2,0,0
		c0-0.2-0.1-0.4-0.1-0.6c0,0,0-0.3,0-0.2s0-0.2,0-0.2c0-0.2,0-0.3,0.1-0.5c0-0.1,0-0.1,0.1-0.2c-0.1,0.2,0-0.1,0-0.1
		c0.1-0.2,0.2-0.4,0.3-0.5c0,0,0.1-0.2,0,0l0.2-0.2l0.1-0.1c0,0,0.3-0.2,0.1-0.1c0.1-0.1,0.2-0.2,0.3-0.3c0.1,0,0.1-0.1,0.2-0.1
		c0.2-0.1-0.2,0.1,0.1,0l0.5-0.2c-0.3,0.1,0.2,0,0.3,0h0.3c-0.3,0-0.1,0,0,0h0.3c0,0,0.4,0.1,0.1,0c0.2,0,0.4,0.1,0.6,0.2
		c0.2,0.1,0,0,0,0l0.3,0.2l0.2,0.1l0.2,0.1c-0.1-0.1-0.1-0.1,0,0s0.2,0.2,0.4,0.4l0.2,0.2c-0.1-0.2,0,0.1,0,0.1
		c0.1,0.2,0.2,0.3,0.2,0.5c0.1,0.2,0,0,0,0C197.2,278.2,197.2,278.3,197.2,278.5c0,0.1,0.1,0.3,0.1,0.5c0,0.6,0.9,1,1.4,0.9
		c0.6-0.1,1.1-0.6,1.1-1.3c-0.1-2-1.4-3.7-3.2-4.3c-2-0.7-4.2-0.1-5.5,1.5c-1.3,1.5-1.5,3.7-0.5,5.4c1.1,1.8,3.1,2.7,5.2,2.3
		c2.3-0.4,3.9-2.3,4.1-4.6c0-0.6-0.4-1.1-1-1.2c0,0,0,0,0,0C198.1,277.5,197.3,277.9,197.2,278.5z" fill="#000005"></path><circle class="st1" cx="179.9" cy="278.5" r="4.1" fill="#FFFFFF"></circle><path class="st0" d="M182.8,278.3c0,1.4-0.9,2.7-2.2,3.3c-0.1,0.1-0.3,0.1-0.4,0.1l-0.3,0c-0.3,0.1,0.1,0-0.1,0h-0.3
		c-0.4,0,0.1,0-0.1,0h-0.3c-0.3,0,0.2,0.1-0.1,0l-0.3-0.1c0.1,0,0.2,0.1,0,0l-0.3-0.1c0.1,0,0.2,0.1,0,0l-0.2-0.1
		c0,0-0.2-0.2-0.1-0.1c-0.2-0.1-0.3-0.3-0.4-0.5c-0.4-0.6-0.6-1.2-0.7-1.9c0-0.7,0.1-1.5,0.5-2.1c0.4-0.6,0.9-1.1,1.5-1.4
		c0.3-0.1,0.6-0.2,0.9-0.3c0.3,0,0.5,0,0.8,0c0.3,0-0.2-0.1,0.1,0l0.3,0.1c-0.3-0.1,0.4,0.3,0.2,0.1l0.2,0.1c0,0,0.3,0.3,0.2,0.2
		c0.1,0.1,0.2,0.2,0.4,0.4C182.5,276.8,182.7,277.5,182.8,278.3c0,0.5,0.9,0.9,1.3,0.9s1.1,0,1.1-0.6c-0.1-4.5-6.6-6.8-9.5-3.4
		c-1.3,1.5-1.4,3.7-0.4,5.4c1.3,1.9,3.6,2.9,5.9,2.6c2.3-0.3,4-2.3,4-4.6c0-0.2-0.3-0.5-0.4-0.6c-0.3-0.2-0.6-0.3-0.9-0.4
		C183.4,277.7,182.8,277.8,182.8,278.3z" fill="#000005"></path><path class="st0" d="M208.8,169.4c-4.4-1.3-7.4-5.8-7.2-10.9c0.3-7.5,5.9-18.4,10.2-20.1c6.2-2.4,52.4-7.4,60.5,0.8
		c7,7.3,10.7,17,10.4,27.1C282.3,172.9,228.5,175,208.8,169.4z" fill="#000005"></path><path class="st0" d="M207,167.9c-0.3-0.1-0.6-0.2-0.9-0.3c-0.1-0.1-0.4-0.4-0.3-0.1c0,0,0.6,0.7,0.4,0.2c-0.1-0.2-0.3-0.4-0.5-0.6
		c-0.7-0.9-1.2-1.9-1.5-2.9c-0.7-2.1-0.8-4.4-0.3-6.6c0.8-4.5,2.5-8.7,5-12.5c1.4-2.2,3.2-4.5,5.8-5.3c1.9-0.5,3.8-0.9,5.7-1.1
		c6.2-1,12.4-1.6,18.7-1.9c7-0.5,13.9-0.5,20.9,0c2.8,0.2,5.6,0.7,8.4,1.3c1.1,0.3,2.1,0.6,3.1,1.1c0.2,0.1,0.3,0.1,0.5,0.2
		c-0.4-0.2,0.3,0.3-0.2-0.1c0,0-1-0.6-1-0.8c0,0.3,1,1.1,1.2,1.3c3.2,3.8,5.7,8.2,7.2,13c0.7,2.2,1.2,4.4,1.5,6.6
		c0.4,1.9,0.4,3.8,0.2,5.7c-0.2,1.1-1.4,1.7-2.3,2.1c-1.9,0.8-3.9,1.4-5.9,1.7c-6.3,1.1-12.6,1.8-19,2.1c-7.6,0.4-15.2,0.4-22.8,0.1
		c-6.7-0.2-13.4-0.9-20-2.1C209.5,168.5,208.2,168.2,207,167.9c-0.5-0.2,1,1.3,1.1,1.4c0.7,0.7,1.6,1.3,2.6,1.6
		c6.4,1.8,13.1,2.4,19.6,2.8c8.1,0.5,16.2,0.6,24.2,0.2c7-0.2,13.9-0.8,20.8-2c2.2-0.3,4.4-0.9,6.5-1.7c1-0.4,2.5-1,2.8-2.2
		c0.1-0.7,0.1-1.4,0.1-2.1c0-1-0.1-2.1-0.2-3.1c-0.2-2.3-0.7-4.5-1.4-6.8c-1.5-5.1-4-9.8-7.4-13.8c-2.2-2.8-5-5-8.2-6.4
		c-2.5-1-5.2-1.6-7.9-1.9c-7.2-0.8-14.4-1-21.7-0.6c-6.8,0.3-13.6,0.9-20.4,1.9c-2.2,0.3-4.3,0.7-6.4,1.2c-2.6,0.7-4.3,2.6-5.8,4.8
		c-2.7,4-4.6,8.4-5.4,13.2c-0.9,4.5,0.6,9.2,4,12.3c1.9,1.9,4.2,3.3,6.8,4.1c0.4,0.1-1-1.3-1.1-1.4
		C208.8,168.8,207.9,168.3,207,167.9z" fill="#000005"></path><path class="st0" d="M253.9,262h-4c0,0,0-1.9,0.1-5l4,0C253.9,260.1,253.9,262,253.9,262z M254,252h-4v-5h4V252z M254.1,242h-4
		c0-1.6,0-3.3,0-5h4C254.1,238.6,254.1,240.3,254.1,242L254.1,242z M254.1,232h-4v-5h4V232z M250.1,222c0-1.7,0-3.3,0-5h4
		c0,1.7,0,3.3,0,5H250.1z M250,212c0-1.7,0-3.4-0.1-5l4-0.1c0,1.7,0,3.3,0.1,5L250,212z M249.9,202c0-1.7-0.1-3.4-0.1-5l4-0.1
		c0,1.6,0.1,3.3,0.1,5L249.9,202z M249.6,192c-0.1-1.8-0.1-3.4-0.2-5l4-0.2c0.1,1.6,0.2,3.3,0.2,5L249.6,192z" fill="#000005"></path><path class="st1" d="M230.9,148.9c0,0,4.1,1.5,2.3,5.3s-6.5,1.6-6-2.1S230.9,148.9,230.9,148.9z" fill="#FFFFFF"></path><path class="st1" d="M264.3,148.9c0,0,4.1,1.5,2.3,5.3s-6.5,1.6-6-2.1S264.3,148.9,264.3,148.9z" fill="#FFFFFF"></path><path class="st1" d="M393,251.5c-11.2-3-20.5-10.9-25.2-21.5c-4.7-10.9-7.3-22.5-7.8-34.3c-1.8-34,0.5-61.8,19.4-63.7
		c12.8-1.3,15.1,21,11.8,37.5c0,0,8.4-21.4,23.5-35.7c21.9-20.6,32.4-13.1,35.8-8.7c8.9,11.4-4,24.3-14.6,25.9c0,0,21.3-12.3,33.5-3
		c13.1,10,2.8,20.2-15.1,22.4l-7.2,5.3c0,0,8.8,0.4,16.1,4.7c8.8,5.1,10.7,12.1,8.4,17c-4.5,9.7-16.7,4.2-17.7,3.7s-6.2,5.2-11,9.6
		c-0.7,6.5-2.4,12.8-4.9,18.8C430.6,247,411.4,256.4,393,251.5L393,251.5z" fill="#FFFFFF"></path><path class="st0" d="M394.7,250.6c-6.5-1.7-12.3-5.2-17-10c-4.5-4.7-7.4-10.3-9.6-16.4c-5.1-14.3-6-29.4-6.1-44.5
		c-0.1-6.8,0.2-13.5,1-20.2c0.6-5.3,1.9-10.6,4-15.5c1.6-3.7,4.1-7.3,7.6-9.3c0.8-0.5,1.6-0.8,2.4-1.1c0.3-0.1,0.7-0.2,1.1-0.3
		c0.3-0.1,0.5-0.1,0.8-0.1c0,0,0.4-0.1,0.1,0s0.2,0,0.3,0c0.3,0,0.6-0.1,0.9-0.1c-0.4,0,0.1,0,0.3,0s0.4,0.1,0.1,0l0.3,0.1
		c0.1,0,0.3,0.1,0.4,0.1c0.9,0.3,1.7,0.7,2.4,1.3c3.6,2.9,5,8.2,5.6,12.6c0.9,6,0.9,12.1,0,18.2c-0.2,1.5-0.4,2.9-0.7,4.4
		s4.4,1.1,4.9-0.1c2-4.9,4.3-9.6,7-14.1c5.3-9.5,12.2-17.9,20.4-25c3.6-3.2,7.7-5.8,12.1-7.8c1.5-0.6,3-1.1,4.6-1.4h0.1l0.5-0.1
		c0.4,0,0.7-0.1,1.1-0.1c-0.6,0,0.2,0,0.5,0h0.4h0.4h-0.2l0.9,0.1c0.1,0,0.9,0.2,0.4,0.1c0.5,0.1,1.1,0.3,1.6,0.5l0.4,0.2l0.6,0.3
		c0.4,0.2,0.8,0.5,1.2,0.8c0.6,0.4,1.2,0.9,1.7,1.5c1,1.1,1.9,2.4,2.5,3.7c4.6,9.6-5.6,20.1-14.7,21.5l2.6,1.6
		c2.8-1.6,5.7-2.9,8.7-3.9c5.2-1.8,10.9-3.1,16.3-1.4c4.8,1.5,11.2,6.7,9.9,12.5s-8.9,8.5-14,9.7c-1.1,0.2-2.3,0.5-3.4,0.6
		c-1.1,0.1-2.2,0.4-3.1,0.9c-0.7,0.5-1.4,1-2,1.5l-5.2,3.8c-1.2,0.9,1.1,1.5,1.6,1.5l1,0.1c-0.6-0.1,0.4,0.1,0.5,0.1l1.8,0.3
		c2.7,0.5,5.3,1.2,7.9,2.2c5,2,10.4,5.8,11.9,11.3c1.1,3.9-0.3,8.6-4,10.6c-0.6,0.3-1.3,0.6-2,0.6c0.6-0.1-1.2,0.1-0.6,0.1
		c-0.5,0-1,0-1.4-0.1c0.4,0-0.3,0-0.3-0.1l-0.7-0.1l-1.1-0.2c-0.3-0.1-1.4-0.4-2-0.6c-0.4-0.2-0.9-0.3-1.3-0.5
		c-0.1,0-0.2-0.1-0.4-0.1c1,0.4-0.3-0.1-0.1-0.1c-0.4-0.1-0.8-0.2-1.3-0.2c-2.4-0.1-4.1,1.4-5.8,2.9c-2.4,2.1-4.6,4.4-6.9,6.6
		c-0.6,0.5-1.1,0.9-1.2,1.6c-0.1,0.5-0.1,1-0.2,1.5c-1.4,10.9-5.4,22.2-13.6,29.8C418.1,250.3,406.1,253.5,394.7,250.6
		c-1.1-0.3-2.4-0.2-3.5,0.3c-0.8,0.4-0.9,1.3,0.1,1.6c10.8,2.9,22.4,1.5,32.2-3.9c4.7-2.6,8.7-6.1,12-10.4c3.5-4.8,6-10.2,7.5-16
		c1.2-3.8,2-7.8,2.4-11.8l-0.3,0.6c2.6-2.5,5.1-5,7.8-7.5c0.5-0.4,0.9-0.8,1.4-1.2c0.2-0.1,0.4-0.3,0.5-0.4s0,0,0,0l0.2-0.1
		c0.6-0.3,0-0.3-1.6,0c-2.8,0-1.3,0.2-0.3,0.6c4,1.7,8.4,2.1,12.7,1.3c5-1.2,9.1-5.3,9.1-10.7c-0.1-6.1-5.1-10.8-10.1-13.6
		c-5.3-2.9-11.2-4.5-17.3-4.8l1.6,1.5l7.2-5.3l-2.1,0.7c6.7-0.8,14.1-2.5,19.4-7c3.8-3.2,5.3-7.9,2.5-12.3
		c-3.3-5.3-9.3-8.1-15.3-8.6c-5.8-0.5-11.8,0.7-17.3,2.6c-3.3,1.1-6.5,2.5-9.6,4.2c-0.6,0.4-0.9,0.9-0.3,1.4
		c0.9,0.4,1.9,0.5,2.9,0.3c9-1.4,19.8-9.4,19.3-19.5c-0.3-5.9-4.8-11.1-10.3-12.7c-7.6-2.3-15.6,0.7-22,4.8
		c-10.2,6.5-18.4,15.7-24.9,25.8c-4,6-7.3,12.4-10.1,19.1l4.9-0.1c1.3-6.3,1.7-12.8,1.2-19.3c-0.5-5.1-1.6-11-4.9-15.1
		s-8.6-4.8-13.5-3.6c-4.5,1-8.5,3.6-11.2,7.3c-3.1,4.1-4.7,9.1-5.8,14.1c-1.3,6.4-2.1,13-2.2,19.5c-0.3,7.9,0,15.8,0.4,23.7
		c0.4,8.1,1.7,16.1,4,23.8c1.9,6.4,4.3,12.9,8.3,18.2c4.3,5.7,10,10.1,16.5,12.8c1.6,0.7,3.3,1.2,4.9,1.7c1.2,0.4,2.4,0.3,3.5-0.3
		C395.6,251.7,395.7,250.9,394.7,250.6z" fill="#000005"></path><path class="st0" d="M360.8,166.5c4.9,1.7,10,2.9,15.1,3.4c6.1,0.5,12.2-1.5,16.9-5.5c2.3-2.1-1.5-4.5-3.4-2.9
		c-2.1,1.9-4.6,3.3-7.4,4c-0.7,0.2-1.3,0.3-2,0.4l-1,0.1c0.1,0-1,0.1-0.5,0c-1,0-2,0-3-0.1c-4.5-0.5-8.9-1.6-13.2-3.1
		c-1.2-0.4-2.5,0.1-3.1,1.2C358.7,165.2,359.8,166.1,360.8,166.5L360.8,166.5z" fill="#000005"></path><path class="st0" d="M419.7,135.3c1.2,1.8,2.4,3.7,3.6,5.6c1.2,2.1,2.7,3.9,4.5,5.5c1.6,1.2,3.3,2.3,5,3.2l5.9,3.5
		c0.9,0.5,0.3-0.9,0.1-1.2c-0.5-1.1-1.2-2-2.1-2.7c-3.2-1.9-6.6-3.7-9.7-5.8c-1-0.7-1.8-1.6-2.4-2.7l-3.2-5
		c-0.3-0.5-0.7-1.1-1.1-1.5c-0.1-0.1-0.7-0.8-1-0.7C418.6,133.5,419.5,135.1,419.7,135.3L419.7,135.3z" fill="#000005"></path><path class="st0" d="M435.5,151.9c2,8.2,7.4,15.3,14.8,19.4c1.2,0.5,2.6,0.2,3.4-0.8c0.7-0.7,0.7-1.9,0-2.6
		c-0.1-0.1-0.2-0.2-0.3-0.3c-6.5-3.6-11.2-9.7-13-16.8c-0.3-1.1-1.4-1.8-2.5-1.5c0,0-0.1,0-0.1,0
		C436.7,149.5,435.2,150.6,435.5,151.9L435.5,151.9z" fill="#000005"></path><path class="st0" d="M453.5,178.5c-2.3,2.7-2.6,6.8-2.9,10.1c-0.3,3.8-0.3,7.5-0.1,11.3c0,0.2,2.1-1,2.2-1.1
		c0.4-0.3,1.9-1.1,1.9-1.7c-0.2-3.6-0.2-7.2,0.1-10.7c0.1-2,0.4-3.9,0.8-5.9c0.3-1.5,0.9-2.9,1.8-4.1c0.6-0.8-0.9,0-1,0.1
		C455.2,177,454.3,177.7,453.5,178.5L453.5,178.5z" fill="#000005"></path><path class="st0" d="M417.3,180.5c4.3-4.2,8.1-8.9,11.4-13.9c3.4-5,6.5-10.2,9.4-15.5c0.5-0.9,0-1.6-1-1.5c-1.2,0.2-2.3,0.9-2.9,2
		c-2.7,5.1-5.6,10-8.8,14.8c-3,4.7-6.5,9-10.4,12.9c-0.5,0.5-1.5,1.7-0.6,2.3S416.7,181,417.3,180.5L417.3,180.5z" fill="#000005"></path><path class="st0" d="M432.2,192.9c7.8-5.9,13.8-13.5,20.8-20.3c0.6-0.6-1.1-1.2-1.5-1.3c-0.6-0.2-2.5-0.9-3.1-0.3
		c-6.9,6.8-13,14.4-20.8,20.3c-0.7,0.5,1.2,1.2,1.5,1.3C429.8,192.9,431.5,193.4,432.2,192.9L432.2,192.9z" fill="#000005"></path><path class="st0" d="M391.9,171.3c0.2,0.1,0.4,0.2,0.5,0.4s0.4,0.3,0.6,0.4l0.4,0.3c0.4,0.4-0.1-0.1,0.1,0.1
		c0.7,0.6,1.5,1.3,2.1,1.9l0.6,0.6l-0.1-0.1l0.4,0.4c0.5,0.5,0.9,1,1.3,1.5l0.6,0.7c0.4,0.5-0.3-0.4,0.1,0.1l0.3,0.3
		c0.5,0.6,1,1.3,1.4,2l0.1,0.1l0.3,0.5l0.6,1c0.5,0.8,0.8,1.4,1.1,2c1.7,3.4,2.9,7,3.6,10.8c1,5.5,1,11.2,0,16.7
		c-0.2,1,0.7,2.1,1.3,2.8c0.2,0.2,1.7,1.7,1.9,0.8c3.1-16.5-2.7-33.4-15.3-44.6c-1-0.9-2-1.7-3-2.4c-0.8-0.5-1.2-0.2-0.9,0.7
		C390.3,169.6,391,170.6,391.9,171.3L391.9,171.3z" fill="#000005"></path><path class="st1" d="M122.7,198.7c14.1-1.2,17.4,28.6,18.2,48.7c0.2,5.9,5.5,32.9-7.9,42.6c-5.1,3.7-10.4,7-15.9,10
		c-10.6,5.8-23.6,5.2-33.6-1.6l-1.1-0.8c-11.4-8.7-16.8-28.7-16.8-28.7s-9.1,1.6-10.1-9.4c0,0-9.6,11.4-16.8,3.5
		c-10.3-11.3,9.8-34.3,20.2-35.3c0,0,2.3-10.4,14.8-7.8l-2.3-7.5c-4.4-1.9-28.1-4-23.4-20.8c2.8-10.1,24.5-11.1,42,3.6
		c16.3,13.7,19.2,42.2,19.2,42.2s2.9-5.5,4.2-7.6C113.4,229.8,107.3,200,122.7,198.7z" fill="#FFFFFF"></path><path class="st0" d="M123.2,201c0.1,0,0.9,0,0.4,0c0.2,0,0.5,0,0.7,0.1s0.5,0.1,0.8,0.1c0.5,0.1-0.2-0.1,0.3,0.1
		c0.5,0.2,0.9,0.4,1.3,0.6c-0.6-0.3,0.2,0.1,0.3,0.2c0.2,0.1,0.4,0.3,0.7,0.5c0.1,0.1,0.7,0.6,0.3,0.2l0.6,0.6
		c0.4,0.4,0.8,0.9,1.1,1.4c0.3,0.3,0.5,0.6,0.7,1c0.4,0.6,0.7,1.2,1,1.9c2.8,5.4,4,11.7,5,17.8c1,6.8,1.7,13.6,1.9,20.5
		c0.1,1.9,0.3,3.7,0.5,5.5c0.1,1.3,0.2,1.5,0.3,2.8s0.2,2.5,0.3,3.7c0.5,5.8,0.3,11.6-0.8,17.3c-0.5,2.7-1.5,5.4-2.9,7.8
		c-1.6,2.6-3.7,4.7-6.3,6.3c-3.6,2.5-7.3,4.9-11.2,7.1c-3.2,2-6.8,3.5-10.5,4.4c-7.8,1.8-16.1,0.3-22.8-4.1
		c-5.4-3.7-9.1-9.3-12.1-15.2c-1.2-2.4-2.4-5.3-3.3-7.6c-0.5-1.3-1.1-3.1-1.6-4.7l-0.2-0.7c-0.3-1.3-1.6-2.1-2.9-2h-0.3
		c-0.3,0-1.3,0-0.4,0c-0.4,0-0.9,0-1.3-0.1c-0.1,0-0.9-0.2-0.5-0.1s-0.5-0.1-0.6-0.2s-0.5-0.2-0.8-0.3c-0.5-0.2,0.3,0.2,0,0
		c-0.1-0.1-0.3-0.2-0.4-0.3s-0.8-0.7-0.5-0.3c-0.3-0.3-0.5-0.5-0.8-0.8c-0.3-0.3,0,0.1-0.1-0.2l-0.3-0.5c-0.2-0.3-0.4-0.8-0.5-1
		c-0.4-1-0.6-2-0.7-3c-0.2-2.2-2.8-3.7-4.5-1.8c-0.1,0.1-0.6,0.7-0.4,0.4s-0.3,0.3-0.5,0.5c-0.3,0.3-0.6,0.5-0.9,0.8
		c-1.4,1.3-3,2.4-4.8,3.2c-0.9,0.4-1.8,0.6-2.8,0.6c-0.7,0-1.5-0.2-2.1-0.5c-0.9-0.6-1.7-1.3-2.3-2.2c-0.1-0.2-0.2-0.3-0.3-0.4
		c-0.1-0.2-0.2-0.4-0.3-0.6s-0.2-0.4-0.3-0.6c-0.1-0.1-0.1-0.3-0.1-0.4c-0.5-1.8-0.6-3.7-0.3-5.5c0.2-1,0.5-1.9,0.8-2.9
		c0.4-1.1,0.8-2.1,1.3-3.1c2.1-4.1,4.9-7.8,8.3-10.9c1.8-1.7,3.7-3.1,5.8-4.4c0.2-0.1,0.7-0.4,1.2-0.6s0.9-0.4,1.4-0.6l0.7-0.2
		c0.1,0,0.7-0.2,0.5-0.1l0.4-0.1l0.7-0.1c0.8-0.1,1.5-0.6,1.8-1.4c0.1-0.5,0.3-1,0.5-1.4c0.1-0.2,0.5-0.9,0.1-0.3
		c0.2-0.3,0.3-0.5,0.5-0.8c0.4-0.6,0.8-1.1,1.2-1.6c0.2-0.2-0.3,0.3,0-0.1l0.4-0.4c0.3-0.3,0.7-0.5,1-0.8c0.3-0.2,0.5-0.4,0.8-0.5
		c0.4-0.2,0.8-0.3,1.2-0.5c2.2-0.6,4.4-0.6,6.6-0.1c1.2,0.2,2.2-0.6,2.4-1.8c0-0.3,0-0.5,0-0.8l-1.4-4.6c-0.6-1.8-0.8-4.1-2.8-4.9
		c-1.3-0.5-2.7-0.9-4.1-1.1l-1.1-0.3l-0.3-0.1l-0.5-0.1c-0.9-0.2-1.9-0.5-2.8-0.8c-2-0.6-3.9-1.3-5.7-2.2l-0.6-0.3l-0.5-0.3
		l-0.5-0.3l-0.7-0.4c-0.4-0.3-0.8-0.5-1.2-0.8l-0.6-0.5l-0.2-0.2c-0.5-0.4,0.2,0.2-0.1,0s-0.7-0.6-1-1c-0.2-0.2-0.3-0.4-0.5-0.6
		s-0.5-0.6-0.2-0.2c-0.3-0.4-0.5-0.8-0.7-1.3c-0.1-0.2-0.2-0.4-0.3-0.6s-0.2-0.4,0,0c0-0.1-0.1-0.3-0.1-0.4c-0.5-2-0.5-4.1,0.1-6.1
		c0.1-0.4,0.3-0.8,0.5-1.2c0.2-0.4-0.2,0.2,0.1-0.2c0.1-0.2,0.3-0.4,0.4-0.7s0.2-0.3,0.4-0.5c0.3-0.4-0.1,0.1,0.2-0.2
		c0.4-0.3,0.7-0.6,1.1-0.9l0.6-0.4l0.3-0.2c0,0-0.3,0.1,0,0c0.5-0.3,1-0.5,1.6-0.7c0.9-0.4,1.9-0.7,2.9-0.8c5.6-1,11.4,0.1,16.7,2.1
		c6.4,2.3,12.2,6.2,16.8,11.1c3.8,4.3,6.8,9.3,9,14.6c3,7.2,5,14.8,6,22.6c0,0.3,0.1,1.1,0-0.1c0,1.1,0.7,2.1,1.7,2.5
		c1,0.4,2.1,0.1,2.7-0.7c0.7-1.4,1.4-2.7,2.2-4.1s2.6-3.6,2.3-5.3s-0.5-3.1-0.7-4.7c0-0.2-0.1-1.2-0.1-0.6c0-0.3-0.1-0.6-0.1-0.9
		c-0.1-0.8-0.1-1.6-0.2-2.4c-0.1-1.7-0.1-3.4,0-5.1c0-3.3,0.6-6.5,1.9-9.5c0.1-0.2,0.2-0.4,0.3-0.6c-0.2,0.4,0.1-0.2,0.2-0.3
		c0.2-0.4,0.4-0.7,0.7-1.1s0.5-0.6,0.7-0.9c0.4-0.5-0.3,0.3,0.1-0.1c0.2-0.2,0.4-0.4,0.6-0.5c0.3-0.2,0.6-0.5,1-0.7
		c0.5-0.3-0.4,0.2,0.2-0.1c0.2-0.1,0.5-0.2,0.7-0.3C121.6,201.3,122.4,201.1,123.2,201c3.2-0.2,1.8-4.8-1.1-4.5
		c-13.7,1.3-13,19.7-11.7,29.6c0.2,1.3,0.4,2.7,0.6,4l0.3-1.7c-1.6,2.4-2.9,5.1-4.2,7.6l4.4,1.8c-0.7-6.3-2.1-12.6-4.2-18.6
		c-1.7-5.3-4.1-10.4-7.1-15.2c-3.4-5.5-8-10.2-13.3-13.8c-5.6-3.9-12-6.6-18.8-7.9c-5-0.9-10.6-0.9-15.4,1c-2,0.8-3.9,2.1-5.3,3.7
		c-1.3,1.7-2.1,3.8-2.4,5.9c-0.8,4.5,0.6,9,3.8,12.2c3.1,2.9,6.9,5.1,10.9,6.3c1.7,0.6,3.5,1.1,5.3,1.5l2.8,0.7l0.5,0.1
		c0.1,0-0.5-0.1,0,0l0.8,0.2c0.5,0.1,0.9,0.3,1.3,0.5l-1.6-1.8l2.3,7.5l2.4-2.6c-4.8-1-10.1-0.4-13.7,3.3c-1.7,1.6-2.9,3.7-3.5,5.9
		l1.8-1.4c-4.5,0.5-8.6,3.4-11.8,6.2c-4.2,3.6-7.6,7.9-10.1,12.8c-2.2,4.4-3.8,9.6-2.4,14.5c1.6,5.5,6.8,10.1,12.7,8.9
		c4.3-0.8,8.1-3.7,10.9-7l-4.5-1.8c0.5,4.7,2.3,9.1,6.9,11.2c1.9,0.9,4.1,1.1,6.1,0.8l-2.9-2c1,3.6,2.3,7.1,3.8,10.5
		c2.7,6.3,6.3,12.6,11.3,17.4c6.5,6.1,15.2,9.4,24.1,9.2c4.4-0.1,8.7-1,12.8-2.7c3.8-1.7,7.5-3.8,11-6.1c2.1-1.3,4.1-2.7,6.2-4.1
		c1.6-1,3.1-2.2,4.4-3.5c2.2-2.3,3.9-5.1,5-8.1c2.3-6,2.7-12.6,2.6-18.9c-0.1-2.8-0.3-5.5-0.5-8.3c-0.1-1.3-0.3-2.5-0.4-3.8
		c0-0.2-0.1-0.5-0.1-0.7v-0.3c0,0.1,0.1,0.5,0,0.1l-0.1-1.2c-0.6-6.7-0.7-13.4-1.6-20c-0.9-7-2.2-14-4.9-20.6
		c-2.1-5-5.5-10.1-11.1-11.5c-1.2-0.3-2.4-0.4-3.6-0.3c-1.2,0.1-2,1.2-1.8,2.3c0,0.1,0,0.2,0,0.3C120.7,200.3,121.9,201.1,123.2,201
		z" fill="#000005"></path><path class="st0" d="M71.2,217.1l4.5,15.4l0.7,2.2c0.3,1.1,1.8,1.6,2.9,1.6c0.9,0,2.3-0.6,2-1.8l-4.5-15.4l-0.7-2.2
		c-0.3-1.1-1.8-1.6-2.9-1.6C72.3,215.4,70.9,216,71.2,217.1z" fill="#000005"></path><path class="st1" d="M74.2,247.6c0,0,6.6,20.5-9.1,22.7c-11.5,1.6-14.6-13.7-7.5-39.7" fill="#FFFFFF"></path><path class="st0" d="M71.7,248.1c0.7,2.3,1.2,4.8,1.3,7.2c0.3,3.9-0.3,8.4-3,11c-0.7,0.7-1.5,1.2-2.4,1.5c-0.5,0.2-0.9,0.3-1.4,0.5
		c-0.4,0.1-0.8,0.2-1.2,0.2c-0.2,0-1,0.1-0.4,0.1c-0.5,0-0.9,0-1.4,0s0.2,0.1-0.2,0l-0.8-0.2c-0.2,0-0.6-0.2-0.2,0l-0.6-0.2
		l-0.5-0.3l-0.2-0.1c0.4,0.2,0,0-0.1-0.1c-0.3-0.2-0.6-0.5-0.9-0.8c-0.1,0-0.5-0.5-0.3-0.3c-0.2-0.2-0.3-0.4-0.4-0.6
		c-0.6-0.8-1-1.6-1.4-2.5c-0.8-2.3-1.3-4.8-1.3-7.2c-0.5-8.6,1.5-17.4,3.7-25.7c0.7-2.4-4.3-2.3-4.9-0.1c-2.2,8.2-4,16.8-3.8,25.3
		c0.1,4.8,1,10.7,5,14c4.2,3.5,10.6,2.7,15.1,0.2s6.5-7.7,6.6-12.7c0.1-3.4-0.4-6.9-1.4-10.2c-0.5-1.1-1.6-1.7-2.8-1.3
		C73,246,71.4,246.8,71.7,248.1L71.7,248.1z" fill="#000005"></path><path class="st0" d="M116.7,269.4c-1.5-2.3-2.7-4.8-3.7-7.4c-2.2-5.7-2.9-12-2.1-18.1c0.7-4.4,2.3-8.6,4.7-12.4
		c0.3-0.4-4.1-2.5-4.8-1.5c-4,6.3-5.7,13.8-4.9,21.2c0.6,5,2.1,9.9,4.4,14.4c0.5,0.9,1,1.8,1.5,2.6c0.5,0.8,1.9,1.1,2.8,1.4
		C114.9,269.5,117,269.9,116.7,269.4L116.7,269.4z" fill="#000005"></path><path class="st0" d="M73.6,213.4c2.5-0.4,4.1-1.9,5.5-3.9c1.3-1.7,2.5-3.6,3.6-5.5c2.1-3.9,3.4-8.1,2.8-12.5
		c-0.3-2.3-5.3-1.7-5,0.6c0.4,3.5-0.3,7-2,10.1c-0.8,1.6-1.8,3.2-2.9,4.7c-0.5,0.7-1,1.5-1.6,2.1c-0.2,0.3-0.5,0.5-0.7,0.8
		s-0.4,0.2-0.2,0.2c-1,0.2-2.4,0.7-2.3,2S72.6,213.6,73.6,213.4L73.6,213.4z" fill="#000005"></path><path class="st0" d="M115.1,231.9c2.1,1,4.4,1.7,6.8,2c2.3,0.1,4.6-0.3,6.7-1.2c3.9-1.5,7.4-3.9,10.2-6.9c0.8-0.8,0.1-1.9-0.6-2.4
		s-2.4-1.4-3.2-0.6c-2.4,2.7-5.4,4.8-8.8,6.3c-1.6,0.8-3.4,1.3-5.2,1.3c-2-0.2-3.9-0.8-5.6-1.7c-0.8-0.3-2.3-0.3-2.4,0.8
		S114.3,231.5,115.1,231.9L115.1,231.9z" fill="#000005"></path><path class="st0" d="M58.6,228.6c7.9,0.7,12.5,7.8,16.1,14c0.4,0.8,4.8-1.7,4.3-2.5c-3.6-6.4-8.4-13.5-16.4-14.3
		c-1.1,0.1-2.1,0.5-2.9,1.2C59.6,227.1,57.9,228.5,58.6,228.6z" fill="#000005"></path></g><g id="graph"><g id="screen-2"><path class="st0" d="M63.5,170.2c0,0-31.7,13.2-43.7,52v-77.7c0,0-0.6-37.7,43.7-61.6V170.2z"></path></g><g class="st2"><path class="st3" d="M76.3,326.6v-92.2c0,0,51.5,34.1,128.6,26.5v89.9C204.9,350.9,154.4,366.1,76.3,326.6z"></path><path class="st3" d="M178,354.1c-22.5,0-58-4.8-101.9-27.1l-0.3-0.1v-93.4l0.8,0.5c0.5,0.3,52.3,33.9,128.2,26.4l0.6-0.1v90.8
			l-0.4,0.1C204.8,351.4,195.1,354.1,178,354.1z M76.8,326.3c73.5,37,122.9,25.3,127.6,24.1v-88.9c-71,6.8-120.8-22-127.6-26.1
			L76.8,326.3z"></path></g><g class="st4"><path class="st3" d="M316.2,273.3V141.6c0,0,116-4.4,164-51.4v136C480.2,226.1,432.2,264.5,316.2,273.3L316.2,273.3z"></path><path class="st3" d="M315.7,273.8V141.1h0.5c1.2-0.1,116.3-4.9,163.6-51.3l0.9-0.8v137.5l-0.2,0.1c-0.4,0.4-49.4,38.6-164.2,47.2
			L315.7,273.8z M316.7,142.1v130.7c110.5-8.4,159.6-44.2,163-46.8V91.3C433.1,135.7,324.8,141.7,316.7,142.1z"></path></g><g class="st4"><path class="st3" d="M259.6,417v-83.2c0,0,79.9-0.6,137-43.4V376C396.6,376,344.4,419.4,259.6,417z"></path><path class="st3" d="M266.2,417.6c-2.2,0-4.4,0-6.6-0.1h-0.5v-84.2h0.5c0.8,0,80.4-1.1,136.7-43.3l0.8-0.6v86.9l-0.2,0.1
			C396.5,376.8,346.4,417.6,266.2,417.6z M260.1,416.5c80.8,2.1,132.6-38,136-40.8v-84.4c-54.1,40.1-129.1,42.7-136,42.9
			L260.1,416.5z"></path></g><g class="st5"><path class="st3" d="M19.9,144.5c0,0,7.8,33.8,37.7,45v91c0,0-34.1-23.5-37.7-58.2V144.5z"></path><path class="st3" d="M58.1,281.5l-0.8-0.5c-0.3-0.2-34.3-24.1-37.9-58.6v-82.2l1,4.3c0.1,0.3,8.1,33.7,37.4,44.7l0.3,0.1
			L58.1,281.5z M20.4,148v74.3c3.2,31.1,31.6,53.5,36.7,57.2v-89.6C33.1,180.7,23.3,156.9,20.4,148z"></path></g><path class="st1" d="M341.8,248.7c3.5,0.9,7.3,0.2,10.2-2c2.9-2.2,4.3-5.6,5.1-9c0.4-1.4,1-3.4,0-4.7s-3-1.4-4.4-1.2
		c-1.7,0.1-3.3,0.9-4.3,2.2c-0.8,1.4-1,2.9-0.7,4.5c0.4,2.9,2.1,5.5,4.7,7c3.3,1.6,7.5,0.9,10.5-1.2c5.5-3.8,8.6-10.9,9.1-17.4
		c0.2-2.7,0.6-7.2-2.3-8.7c-3.2-1.4-6.9-0.5-9.2,2.2c-2,2.8-2.2,7-2.2,10.3c-0.1,3.6,0.6,7.2,2,10.6c1,2.7,3,5,5.5,6.5
		c3.5,1.6,7.5,1.4,10.9-0.4c3-1.6,5.5-4.1,6.9-7.2c1.3-2.7,2.2-6.4,1.3-9.4c-1-3.6-5.6-4-8.4-1.9c-3,2.3-1.3,6.6,0.1,9.4
		c1.3,2.9,3.8,5,6.8,6c3.2,0.9,6.5,0.4,9.3-1.4c1.2-0.7,2.1-1.8,2.5-3.1c0.5-1.6-4.3-1.4-4.9,0c-1.5,4.1-5.3,2.4-7.5-0.2
		c-1.5-1.9-2.5-4-3.1-6.4c-0.1-0.6-0.2-1.2-0.2-1.8c0.1-0.6,0.4-1.2,0.7-1.7l0.1-0.1c-1.7-0.2-2.3-0.1-1.6,0.3
		c0.1,0.2,0.2,0.3,0.4,0.4c0.3,0.4,0.5,0.9,0.6,1.5c0.9,4.4-1.2,9.5-4.4,12.5c-1.4,1.3-3.3,2.7-5.2,2c-1.8-0.8-3.3-2.2-4.3-3.9
		c-2.6-4.2-3.2-9.6-2.9-14.4c0.1-2.3,0.4-5.1,1.8-7.1c0.2-0.2,0.9-0.8,1-1s-0.6,0.1-0.5,0s0.8,0.6,0.8,0.7c0.3,0.5,0.5,1.2,0.5,1.8
		c0.6,4.8-0.2,9.6-2.3,13.9c-1,2.2-2.4,4.1-4.1,5.9c-0.7,0.8-1.6,1.5-2.7,1.9c-0.6,0.2-1.2,0-1.7-0.4c-1.9-1.3-3.2-3.4-3.5-5.7
		c-0.3-1.2-0.2-2.5,0.4-3.6c0-0.1,0.3-0.5,0.4-0.5s-1.2,0.2-1.3,0.1c0,0,0.4,0.4,0.4,0.5c0.1,0.3,0.2,0.6,0.1,0.9
		c-0.4,2.9-1.3,5.6-2.7,8.2c-0.9,1.5-2.9,3.8-4.9,3.2c-1.2-0.3-2.4-0.2-3.5,0.4C340.9,247.6,340.8,248.4,341.8,248.7L341.8,248.7z"></path><path class="st1" d="M444.8,143.6c2.5-0.5,4.8-1.7,6.6-3.5c1.2-1.3,3.8-4.7,1.6-6.2c-1.7-1-3.8-0.8-5.4,0.3c-0.7,0.9-0.9,2-0.6,3.1
		c0.4,2.4,2.5,4.2,4.9,4.1c1.9-0.1,3.8-0.6,5.5-1.4l4.9-1.8c0.6-0.2,1.7-0.9,0.8-1.6c-1.1-0.5-2.3-0.5-3.4-0.1l-4,1.5l-2.1,0.8
		c-0.3,0.1-0.6,0.2-0.9,0.3c-0.9,0.4,0.7-0.2,0.6,0.1c0-0.1,0.2,0.2-0.1-0.1c-0.1-0.1-0.3-0.3-0.4-0.4c-0.3-0.3-0.5-0.7-0.6-1.1
		c-0.1-0.5-0.2-0.9-0.3-1.4c0-0.2,0-0.4,0-0.6c0-0.1,0-0.2,0-0.4c0.1-0.2,0.1-0.3-0.1-0.1l-1.1,0.4l-0.9,0.1l-1.1-0.2
		c-0.2-0.1,0,0.1,0,0.3c0,0.2,0,0.3,0,0.5c-0.1,0.4-0.3,0.9-0.5,1.3c-0.4,0.7-0.8,1.4-1.4,2c-0.5,0.6-1.1,1-1.8,1.4
		c-0.6,0.4-1.2,0.6-1.9,0.8c-0.6,0.1-2.2,0.6-1.6,1.5s2.4,0.6,3.1,0.5L444.8,143.6z"></path><path class="st1" d="M450.3,172.6c2.6-1.2,6.3-2.3,7.5-5.1c1.3-3.1-1.8-6.3-4.9-6.1c-3.4,0.2-4.3,4.1-2.9,6.8
		c1.7,3.2,5.2,4.8,8.7,4.7c3.9-0.1,7.2-2.2,10.2-4.4c2.3-1.6-1.8-4.3-3.6-3c-2.1,1.5-4.3,3.3-7,3.7c-0.5,0.1-1.1,0.1-1.6,0
		c-0.5,0-0.9-0.2-1.3-0.4c0.3,0.2-0.4-0.3-0.4-0.3c-0.4-0.3,0,0-0.3-0.4c-0.3-0.4-0.5-0.8-0.6-1.2c-0.1-0.4-0.1-0.9,0.1-1.3
		c0.1-0.1,0.2-0.3,0.3-0.4c0,0-0.2,0-0.2,0s-1.7-0.4-1.4-0.5c0,0,0.2,0.2,0.2,0.4c0.1,0.3,0,0.6-0.1,0.9c-0.5,0.9-1.4,1.5-2.3,1.9
		c-1.3,0.7-2.7,1.3-4.1,1.9c-1.1,0.5-0.6,2,0.1,2.6C447.8,172.9,449.1,173.1,450.3,172.6L450.3,172.6z"></path><path class="st1" d="M453.7,196.8c2.6-1,4.5-3.5,4.8-6.3c0.1-1.7-0.4-3.3-1.5-4.6c-1.2-1.3-3.2-2.1-4.8-0.9c-1.1,1-1.7,2.5-1.5,4
		c0.1,1.4,0.6,2.8,1.5,3.9c1.8,2.6,4.9,4.2,8.1,4.1c3.2-0.3,6.1-1.9,8.1-4.5c0.6-1,0.4-2.3-0.5-3c-0.6-0.6-2.2-1.5-3-0.6
		c-1.2,1.5-2.7,2.6-4.4,3.3c-0.8,0.3-1.7,0.5-2.5,0.4c-0.3,0,0,0-0.3,0s-0.5-0.1-0.7-0.2s0,0,0.1,0l-0.3-0.1
		c-0.1-0.1-0.7-0.4-0.3-0.1c-0.2-0.1-0.4-0.3-0.6-0.4l-0.2-0.2c0,0,0.3,0.3,0.1,0.1s-0.3-0.3-0.4-0.4s0.1,0.1,0.1,0.1l-0.2-0.3
		c-0.1-0.1-0.2-0.4,0,0l-0.1-0.3c0-0.1-0.2-0.6-0.1-0.4s0-0.3,0-0.4s0,0,0,0c0-0.1,0-0.3,0-0.4c0-0.1,0-0.3,0.1-0.4l0,0l0.1-0.3
		c0,0,0.1-0.3,0.1-0.1s0.3-0.3,0.2-0.2s0.1,0,0.1,0c-0.2,0.1-0.5,0-0.7-0.1c-0.2-0.1-0.4-0.2-0.6-0.4c0.1,0.1,0.2,0.3,0,0
		c0,0-0.3-0.3-0.2-0.4s0.1,0.2,0.1,0.2v0.1l0-0.2c0,0.1,0,0.2,0,0.3c0,0.1,0,0.2,0,0.3c0-0.3,0,0,0,0.1c-0.2,1.8-1.4,3.3-3.1,3.9
		c-1.1,0.4-0.9,2-0.4,2.8S452.5,197.2,453.7,196.8L453.7,196.8z"></path><path class="st1" d="M430.2,140.6c-0.5,0.2-0.9,0.5-1.1,0.9c-0.4,0.5-0.6,1.2-0.6,1.8c0.1,2.7,2.3,4.8,5,4.7c0,0,0,0,0,0
		c0.5,0,1-0.2,1.5-0.5c0.6-0.3,1-0.8,1.3-1.4c0.2-0.6,0.3-1.3,0.1-2c-0.2-0.8-0.5-1.5-1-2.1c-0.6-0.8-1.4-1.4-2.4-1.8
		c-0.7-0.3-1.5-0.4-2.2-0.3c-0.7,0.1-1.4,0.4-1.9,0.9c-0.9,0.8-1.4,1.9-1.3,3.1c0,0.3,0.1,0.7,0.2,1c0.2,0.5,0.4,0.9,0.6,1.4
		c0.5,0.8,1.2,1.5,2,2c1,0.7,2.2,1,3.4,0.6c0.7-0.4,1.2-1,1.4-1.7c0.6-1.8,0-3.7-1.4-4.9c-0.5-0.4-1-0.7-1.6-0.8
		c-0.5-0.1-1,0-1.3,0.4c-0.7,0.9,0,2.2,0.7,2.9c0,0,0.1,0.1,0.1,0.1l-0.5-0.5c0.1,0.1,0.1,0.2,0.2,0.2l-0.3-0.5
		c0.1,0.1,0.1,0.2,0.2,0.3l-0.2-0.5c0.1,0.1,0.1,0.3,0.1,0.4l-0.1-0.5c0,0.3,0,0.5,0,0.8l0.1-0.5c-0.1,0.3-0.2,0.6-0.3,0.9l0.2-0.4
		c-0.1,0.2-0.3,0.4-0.5,0.5l0.4-0.3c-0.1,0.1-0.2,0.1-0.3,0.1l0.5-0.1c-0.1,0-0.2,0-0.3,0h0.5l-0.3-0.1l0.5,0.1
		c-0.1,0-0.3-0.1-0.4-0.1l0.5,0.3c-0.1-0.1-0.3-0.2-0.4-0.3l0.5,0.4c-0.1-0.1-0.2-0.2-0.4-0.3l0.5,0.5c-0.1-0.1-0.2-0.3-0.3-0.4
		l0.3,0.5c-0.1-0.2-0.2-0.3-0.2-0.5l0.2,0.5c-0.1-0.2-0.1-0.4-0.2-0.6l0.1,0.5c0-0.2,0-0.5,0-0.7l-0.1,0.5c0-0.3,0.1-0.5,0.3-0.8
		l-0.2,0.4c0.2-0.3,0.4-0.5,0.7-0.7l-0.4,0.3c0.3-0.2,0.5-0.3,0.8-0.4l-0.5,0.1c0.2-0.1,0.4-0.1,0.7-0.1h-0.5c0.2,0,0.3,0,0.5,0.1
		l-0.5-0.1l0.4,0.1l-0.5-0.3c0.1,0.1,0.2,0.1,0.3,0.2l-0.5-0.4c0.1,0.1,0.2,0.2,0.3,0.3l-0.5-0.5c0.1,0.1,0.2,0.2,0.2,0.3l-0.3-0.5
		c0.1,0.1,0.2,0.3,0.2,0.5l-0.2-0.5c0.1,0.2,0.1,0.3,0.1,0.5l-0.1-0.5c0,0.2,0,0.4,0,0.6l0.1-0.5c0,0.2-0.1,0.4-0.2,0.6l0.2-0.4
		c-0.1,0.2-0.3,0.4-0.5,0.5l0.4-0.3c-0.2,0.2-0.5,0.3-0.7,0.4l0.5-0.1c-0.2,0.1-0.4,0.1-0.6,0.1h0.5c-0.2,0-0.3,0-0.5-0.1l0.5,0.1
		l-0.3-0.1l0.5,0.3l-0.2-0.1l0.5,0.4l-0.2-0.2l0.5,0.5l-0.2-0.2l0.3,0.5c-0.1-0.1-0.1-0.2-0.1-0.3l0.2,0.5c0-0.1-0.1-0.3-0.1-0.4
		l0.1,0.5c0-0.2,0-0.4,0-0.6l-0.1,0.5c0-0.2,0.1-0.5,0.2-0.7l-0.2,0.4c0.1-0.2,0.3-0.3,0.4-0.5l-0.4,0.3c0.1-0.1,0.2-0.1,0.3-0.2
		c0.4-0.2,0.7-0.6,0.7-1.1c0-0.6-0.2-1.1-0.6-1.6C432.6,140.9,431.4,140.1,430.2,140.6L430.2,140.6z"></path><path class="st1" d="M433.1,171.2c-0.9,1.7-1.1,3.6-0.8,5.5c0.4,1,1.2,1.7,2.1,1.9c1.5,0.6,3.2,0.6,4.8,0c1.5-0.7,2.1-2.5,1.4-4
		c-0.3-0.8-0.9-1.4-1.5-1.9c-1.2-0.9-2.6-1.5-4.2-1.6c-0.9-0.1-1.9,0.1-2.7,0.6c-0.4,0.3-0.7,0.7-0.9,1.2c-0.2,1,0,2,0.6,2.9
		c0.3,0.4,0.6,0.6,1.1,0.7c0.6,0.2,1.3,0.3,1.9,0.3c0.5,0,1.1-0.1,1.5-0.3c0.3-0.2,0.5-0.4,0.3-0.8c-0.3-0.5-0.4-0.9-0.6-1.4
		l0.1,0.3c-0.1-0.4-0.1-0.9,0.1-1.3l-0.1,0.3c0.1-0.2,0.3-0.4,0.5-0.6l-0.3,0.2c0.1-0.1,0.4-0.2,0.1-0.1s-0.2,0.1-0.1,0l-0.4,0.1h-1
		l-0.5-0.1c-0.7-0.1-0.5-0.1-0.3-0.1s-0.5-0.2-0.2-0.1l0.3,0.2c0.1,0.1,0.5,0.4,0,0l0.3,0.2c0.2,0.2,0.4,0.4,0.6,0.6l-0.2-0.3
		c0.3,0.4,0.6,0.9,0.7,1.4l-0.1-0.3c0.1,0.6,0.1,1.1-0.2,1.7l0.1-0.3c-0.1,0.3-0.4,0.6-0.6,0.8l0.3-0.2c-0.1,0.1-0.2,0.1-0.2,0.1
		c-0.4,0.2,0.4-0.1,0.1,0c-0.4,0.1,0.5-0.1,0.2,0s-0.1,0,0.4,0c-0.2,0-0.1,0,0.5,0c-0.5-0.1,0.7,0.1,0.3,0.1
		c0.5,0.1,0.6,0.2,0.4,0.1l0.3,0.1c-0.3-0.2,0.3,0.2,0.1,0.1l-0.2-0.2l0.2,0.3c-0.2-0.2-0.3-0.5-0.3-0.8l0.1,0.3
		c-0.2-1.6,0-3.3,0.7-4.7l-0.1,0.3v-0.1c0.1-0.1,0.2-0.3,0.1-0.4c0-0.2-0.1-0.3-0.2-0.4c-0.4-0.3-0.9-0.5-1.4-0.6
		c-0.6-0.2-1.3-0.2-1.9-0.1l-0.5,0.1c-0.3,0.1-0.5,0.2-0.7,0.4L433.1,171.2z"></path><path class="st1" d="M439.7,194.7c-0.8-0.3-1.6-0.2-2.4,0.1c-0.6,0.3-1.1,0.8-1.4,1.4c-0.5,1-0.8,2.2-0.8,3.3
		c-0.1,1.2,0.2,2.4,0.8,3.4c0.8,1.3,2.1,2.1,3.6,2.3c1.1,0.1,2.2-0.3,2.9-1.2c0.7-0.9,1.1-2,1.1-3.1c0-0.7-0.2-1.3-0.5-1.9
		c-0.2-0.5-0.5-0.9-0.9-1.2c-0.9-0.8-2-1.4-3.3-1.6c-1.3-0.2-2.6,0.1-3.7,0.9c-0.7,0.6-1.1,1.5-1,2.4c0.1,1.3,1,2.5,2.2,2.9
		c1.1,0.4,2.3-0.1,2.7-1.2c0-0.1,0.1-0.2,0.1-0.2c0.2-1.3-0.5-2.6-1.8-3h-0.1l0.6,0.3c0,0-0.1,0-0.1-0.1l0.5,0.4l-0.1-0.1l0.4,0.5
		l-0.1-0.1l0.2,0.6c0,0,0-0.1,0-0.1l0.1,0.6c0-0.1,0-0.1,0-0.2v0.6c0-0.1,0-0.1,0-0.2l-0.2,0.5c0-0.1,0.1-0.1,0.1-0.2l-0.4,0.5
		c0.1-0.1,0.1-0.1,0.2-0.2l-0.5,0.3c0.1-0.1,0.3-0.2,0.5-0.2l-0.6,0.2c0.3-0.1,0.6-0.1,0.9-0.2h-0.6c0.3,0,0.7,0,1,0.1l-0.6-0.1
		c0.2,0.1,0.5,0.1,0.7,0.2l-0.6-0.3c0.2,0.1,0.4,0.2,0.5,0.3l-0.5-0.4c0.2,0.1,0.3,0.3,0.4,0.4l-0.4-0.5c0.1,0.1,0.2,0.3,0.2,0.4
		l-0.2-0.6c0.1,0.2,0.1,0.3,0.1,0.5l-0.1-0.6c0,0.2,0,0.3,0,0.5l0-0.6c0,0.2-0.1,0.4-0.1,0.6l0.2-0.6c-0.1,0.2-0.2,0.4-0.3,0.6
		l0.4-0.5c-0.1,0.2-0.3,0.3-0.4,0.4l0.5-0.3c-0.1,0.1-0.3,0.1-0.4,0.2l0.5-0.2l-0.3,0.1h0.6c-0.1,0-0.3,0-0.4,0l0.6,0.1
		c-0.1,0-0.3-0.1-0.4-0.1l0.6,0.3c-0.1-0.1-0.3-0.2-0.4-0.3l0.5,0.4c-0.1-0.1-0.3-0.3-0.4-0.4l0.4,0.5c-0.1-0.2-0.2-0.3-0.3-0.5
		l0.2,0.6c-0.1-0.2-0.1-0.4-0.2-0.6l0.1,0.6c-0.1-0.4-0.1-0.8,0-1.2l0,0.6c0-0.6,0.2-1.1,0.3-1.7l-0.2,0.5c0.1-0.3,0.2-0.5,0.4-0.7
		l-0.4,0.5c0.1-0.1,0.2-0.2,0.3-0.3l-0.5,0.3c0.1,0,0.2-0.1,0.2-0.1l-0.6,0.2h0.2h-0.6c0.1,0,0.1,0,0.2,0l-0.6-0.1h0.1
		c0.6,0.2,1.2,0.2,1.7-0.1c0.5-0.3,0.9-0.8,1.1-1.4C441.8,196.5,441.1,195.2,439.7,194.7L439.7,194.7z"></path><path class="st1" d="M415.9,137.9c0,3.8,0.2,7.6,0.4,11.4l0.8,24.7l1,29.6c0.3,8.6,0.6,17.2,0.9,25.8c0.1,2.9,0.2,5.9,0.3,8.8
		c0,1.6,0,3.1,0.1,4.7c0,0.1,0,0.3,0,0.4c0,1,5,0.7,5-0.6c0-3.8-0.2-7.6-0.4-11.4c-0.3-8.2-0.6-16.5-0.8-24.7l-1-29.6
		c-0.3-8.6-0.6-17.2-0.9-25.8c-0.1-2.9-0.2-5.9-0.3-8.8c0-1.6,0-3.1-0.1-4.7c0-0.1,0-0.3,0-0.4C420.9,136.4,415.9,136.6,415.9,137.9
		z"></path><path class="st1" d="M332.4,159.5c0,11.7,0.7,23.3,2,34.9c0.3,2.6,5.1,1.4,4.8-0.9c-1.3-11.6-2-23.2-2-34.9
		C337.2,156.1,332.4,157.3,332.4,159.5L332.4,159.5z"></path><path class="st1" d="M333.5,192.8c17.5,0.1,35-0.9,52.4-3.1c0.6-0.1-0.9-4.6-2.4-4.4c-17.2,2.2-34.6,3.2-52,3
		C330.5,188.3,332.2,192.8,333.5,192.8L333.5,192.8z"></path><path class="st1" d="M346.2,182.6c-0.6-3.2,1.2-6.4,4.2-7.6c3.6-1.7,7.8-1.7,11.6-2.2c7.4-0.8,14.1-4.8,18.4-10.9
		c2.2-3.2,3.5-6.9,3.8-10.7c0.1-1.2-1.8-1-2.4-0.8c-1.1,0.3-2,1.2-2.2,2.4c-0.7,6.4-4.5,12-10.3,14.8c-3.5,1.7-7.5,1.7-11.3,2.2
		c-4,0.5-8,1.5-11.4,3.9s-5.8,6.4-5,10.5C342,186.5,346.6,184.5,346.2,182.6L346.2,182.6z"></path><path class="st1" d="M360.3,169.4c-0.5,1-0.7,2.2-0.5,3.3c0.4,1.6,2.2,2.2,3.7,2.5s3.5,0.2,4.4-1.1c0.6-0.9,0.8-2,0.6-3.1
		c-0.1-1-0.6-1.9-1.3-2.6c-0.6-0.5-1.4-0.9-2.2-1.1c-1.2-0.4-2.5-0.3-3.7,0.1c-1.9,0.8-2.6,3.9-0.9,5.2c1.2,0.8,2.7,1.2,4.2,1.1
		c0.8,0.1,1.6-0.3,2.1-1c0.2-0.4,0.1-0.9-0.1-1.2c-0.2-0.3-0.5-0.6-0.9-0.8c-0.8-0.4-1.7-0.7-2.7-0.7c-0.5-0.1-1,0-1.5,0.2
		c-0.2,0.1-0.5,0.3-0.4,0.6c0.3,0.3,0.6,0.6,1,0.7c0.6,0.2,1.2,0.4,1.9,0.4c-0.8,0-1.7-0.2-2.3-0.7c0,0,0.1,0.1,0.1,0.1l-0.2-0.2
		c0.1,0.1,0.2,0.3,0.2,0.4l-0.1-0.2c0,0.2,0,0.5-0.1,0.7l0.1-0.2c-0.1,0.1-0.1,0.2-0.2,0.2l0.3-0.2c-0.1,0.1-0.4,0.1,0.1,0
		c0.7-0.1,1.4-0.1,2.1,0.2c0.2,0.1,0.4,0.1,0.5,0.2c-0.1-0.1-0.1-0.1,0.1,0.1c-0.1-0.1-0.2-0.1-0.2-0.2l0.2,0.2
		c-0.2-0.2-0.3-0.5-0.4-0.8l0,0.2c-0.1-0.8,0-1.6,0.4-2.4l-0.1,0.2c0.2-0.3,0.4-0.6,0.7-0.8l-0.3,0.2l0.2-0.1c0.2-0.1-0.3,0.1-0.1,0
		s-0.5,0-0.2,0c-0.7,0-1.4-0.1-2-0.3c0.3,0.1-0.4-0.2-0.2-0.1s-0.3-0.3-0.1-0.1c0.1,0.1,0.2,0.2,0.4,0.3l-0.2-0.2
		c0.4,0.5,0.7,1.1,0.8,1.7l-0.1-0.2c0.2,0.9,0.2,1.9-0.3,2.8l0.1-0.2c-0.2,0.3-0.5,0.6-0.8,0.8l0.3-0.2c-0.1,0.1-0.3,0.1-0.4,0.2
		l0.2-0.1h-0.1h0.4c0.2,0,0.5,0,0.7,0c0.4,0,0.8,0.1,1.1,0.2l0.3,0.1c-0.1-0.1-0.1-0.1,0,0s0,0,0,0c-0.1-0.1-0.1-0.1-0.2-0.2
		l0.2,0.2c-0.3-0.3-0.4-0.7-0.5-1.1l0,0.2c-0.1-1,0.1-2,0.6-2.9c0.1-0.3-0.5-0.7-0.6-0.7c-0.5-0.3-1.1-0.5-1.7-0.5
		c-0.6-0.1-1.2-0.1-1.8,0C360.8,168.9,360.4,168.9,360.3,169.4L360.3,169.4z"></path><path class="st1" d="M303.7,356.7c-2.9-0.7-6.5,1-8.6,3s-2.7,4.8-3.4,7.4c-1.3,5.2-1.8,11.5,2.4,15.6c8,8,21.7,1.7,26.9-6.5
		c2.3-3.7,5.5-11.2,0.2-13.9c-2.6-1.3-6.4,0.3-8.2,2.2c-1.7,1.7-2.1,4.4-1.8,6.7c0.7,4.9,4.7,8.7,9.6,9.2c5.4,0.4,11.5-2.6,15-6.6
		c4.2-4.7,5.6-11.5,5.6-17.6c0-4.7-1.4-10.8-6.5-12.2c-0.8,0-1.7,0.2-2.4,0.6c-0.6,0.3-1.8,0.7-2,1.4c-3.4,7.7-3.4,17.2,0.8,24.6
		c1.7,3.1,4.4,5.9,8,6.8c4.1,1,8.6-0.8,11.9-3.1c3.2-2.3,5.4-5.8,6-9.7c0.5-2.7,1.1-8.8-3.3-8.1c-3.9,0.6-7.7,3.4-7.4,7.6
		c0.3,3.5,2.7,6.5,6,7.8c4,1.5,8.9-0.6,11.9-3.2c2.8-2.4,3.9-6.2,2.9-9.8c-0.2-0.7-4.9,1.1-4.6,2c1,3,0.2,6.4-2.1,8.6
		c-0.2,0.2-0.4,0.4-0.6,0.6c-0.1,0.2-0.4-0.1,0.2-0.1c-4.1,0.4-7.9-2.3-8.8-6.4c-0.4-1.3-0.4-2.7,0.1-4c0.3-0.5,0.6-1,1-1.5l0.2-0.2
		c-2.1,0.5-2.6,0.8-1.6,0.8c0.4,0.1,0.9,0.4,1.2,0.8c0.7,1.1,1,2.4,0.8,3.7c0,1.7-0.2,3.4-0.7,5c-0.7,2.5-2.6,6-4.9,6.9
		c-1.2,0.3-2.4,0.3-3.6,0c-1.4-0.3-2.8-1-3.9-1.9c-2.2-1.8-3.8-4.1-4.9-6.7c-3-7.1-2.9-15.2,0.2-22.2l-4.4,1.9c3.6,1,5.3,4.6,5.9,8
		c0.6,4.1,0.4,8.4-0.7,12.4c-1,4.1-3.2,8.7-7,10.8c-3.1,1.7-7.4,0.3-9.8-2c-2.7-2.7-4.3-7.2-2.6-10.9c0.1-0.3,0.8-1,0.8-1.3
		l-0.9,0.4c-1,0.3-1.2,0.4-0.6,0.4c0.2,0.1,0.4,0.1,0.6,0.1c1,0.3,1.8,1,2.3,1.8c1.3,2,0.9,4.7,0.2,6.9c-1.2,4-3.7,7.4-7,9.9
		c-2.8,1.9-7,1.3-9.9,0c-4.5-2.1-6.5-6.6-6.4-11.5c0.1-2.7,0.6-5.4,1.4-8c0.3-1.2,0.7-2.3,1.3-3.3c0.3-0.6,0.8-1.1,1.2-1.6
		c0.6-0.7,0.1,0.9-1,0.3c0.2,0.1,0.9,0,1.1,0.1c0.9,0.2,2.2-0.5,3-0.9C302.6,357.9,304.3,356.8,303.7,356.7L303.7,356.7z"></path><path class="st1" d="M367.8,353.3v-1.5c0-0.2,0-0.4-0.1-0.5c-0.1-0.2-0.2-0.4-0.4-0.5c-0.2-0.2-0.5-0.3-0.7-0.4
		c-0.3-0.1-0.6-0.2-0.9-0.3l-0.7-0.1c-0.4,0-0.8,0-1.1,0.1l-0.4,0.2c-0.2,0.1-0.4,0.3-0.5,0.5v1.5c0,0.2,0,0.4,0.1,0.5
		c0.1,0.2,0.2,0.4,0.4,0.5c0.2,0.2,0.5,0.3,0.7,0.4c0.3,0.1,0.6,0.3,0.9,0.3l0.7,0.1c0.4,0,0.8,0,1.1-0.1l0.4-0.2
		C367.5,353.8,367.7,353.6,367.8,353.3L367.8,353.3z"></path><path class="st1" d="M105.1,274.2c-8.5-0.8-14,7-15.1,14.6c-0.6,4-0.4,8.2,2.1,11.5s6,5.6,9.5,7.5c3.8,2,7.9,3.2,12.1,3.6
		c4,0.4,8.3,0.2,11.8-1.9c5.7-3.4,7.8-11,6.1-17.2c-2.3-8.2-10.3-14.2-17.7-17.5c-0.9-0.4,0.4,0.7,0.5,0.8c0.9,0.7,1.8,1.4,2.9,1.9
		c2.5,1.1,4.8,2.8,6.5,4.9c2,2.4,3.4,5.3,4,8.4c1,5.3-0.7,11.4-5.1,14.9c-5.5,4.4-14.2,3.4-20.5,1.2c-1.5-0.5-2.9-1.1-4.2-1.9
		c-1-0.9-1.9-1.9-2.6-3.1c-1.8-3.1-1.8-6.9-1.3-10.4c1.2-7.3,6.5-15.1,14.8-14.3c0.3,0-1.1-1.2-1.2-1.3
		C107.1,275.3,106,274.3,105.1,274.2L105.1,274.2z"></path><path class="st1" d="M110,274.8l-0.2,9.8l-0.1,4.9c0,1.3-0.4,3.1,0,4.3s2.4,2.4,3.5,3.1c1.2,0.6,2.5,1.2,3.8,1.6
		c2.4,1,4.6,2.3,6.6,4c0.7,0.6,1.9,1.8,2.8,1.9s-0.1-0.7-0.4-1c-2.3-2-4.8-3.8-7.5-5.4c-1.2-0.7-2.4-1.3-3.6-1.9
		c-0.6-0.3-1.3-0.6-1.9-0.8l-1-0.4c-1.3-0.5-1-0.9,1.2,1.1l0.8,0.9c-0.3-0.6-0.4-1.3-0.3-2v-2.5l0.1-4.9l0.2-9.8
		c0-0.6-1.3-1.5-1.8-1.8C111.4,275.4,110.7,275,110,274.8L110,274.8z"></path><path class="st1" d="M114.7,296.2c3.9-3.7,7.6-7.7,11-12c0.1-0.1-0.1-0.7-0.1-0.8c-0.2-0.6-0.4-1.1-0.7-1.6c-0.3-0.5-0.5-1-0.9-1.5
		c0-0.1-0.4-0.6-0.5-0.6c-3.4,4.3-7.1,8.3-11.1,12c-0.1,0.1,0.1,0.7,0.2,0.7c0.2,0.6,0.4,1.1,0.7,1.6
		C113.4,294.3,114.5,296.4,114.7,296.2L114.7,296.2z"></path><path class="st1" d="M116.2,284.2c1.1-1.6,2.5-3.1,4-4.4L120,280l0.4-0.3c0.2-0.1,0.4-0.3,0.2-0.5s-0.9-0.2-1.2-0.1
		c-0.6,0-1.3,0.1-1.9,0.3l-0.6,0.2c-0.3,0.1-0.6,0.2-0.8,0.4c-1.8,1.4-3.3,3.1-4.6,4.9c-0.4,0.6,1.7,0.4,1.8,0.4
		c0.6-0.1,1.3-0.2,1.9-0.4C115.5,284.7,115.9,284.5,116.2,284.2L116.2,284.2z"></path><path class="st1" d="M122.1,302.4c2.5-2.4,4.5-5.4,5.9-8.6c0.3-1.1,0-2.3-0.9-3.1c-0.3-0.4-0.8-0.8-1.3-0.9c-0.3-0.1-0.8-0.1-1,0.3
		c-1.2,2.8-2.9,5.4-5,7.7l0.2-0.3c-0.2,0.2-0.4,0.4-0.6,0.6c-0.8,0.8-0.3,2,0.2,2.8c0.3,0.5,0.7,1,1.3,1.3
		C121.3,302.4,121.9,302.7,122.1,302.4L122.1,302.4z"></path><path class="st1" d="M109.9,305.4c1.9,3.3,3.8,6.7,5.8,10c0.9,1.6,1.9,3.2,2.9,4.7c0.8,1.5,1.7,2.9,2.8,4.3c1.3,1.2,3,1.8,4.8,1.7
		c1.9,0,3.8,0,5.8,0.1l11.8,0.1c0.8,0,2.2-0.4,1.9-1.5s-2.1-1.2-3-1.2l-10.3-0.1l-4.9-0.1c-0.7,0-1.3,0-2,0c0.6,0,0.4,0.1,0.1-0.3
		c-0.2-0.2-0.3-0.5-0.5-0.7c-3.6-5.6-6.9-11.4-10.2-17.2c-0.7-0.9-1.9-1.4-3-1.2C111.2,304,109.3,304.4,109.9,305.4L109.9,305.4z"></path><path class="st1" d="M154.7,322c0.4,3.3-0.6,6.7-2.8,9.2c-0.2,0.3-0.5,0.6-0.8,0.8c-0.1,0.1-0.4,0.2-0.4,0.3
		c-0.5,0.7,1.1,0.9,1,1.6c0-0.2-0.2-0.7-0.3-1c-0.1-0.5-0.2-1-0.2-1.5c0-1.8,1.8-2.6,3.2-3.3c1.7-0.8,3.5-1.4,5.3-1.7
		c0.9-0.2,1.9-0.3,2.8-0.4c0.4,0,0.9-0.1,1.3-0.1c0.4,0.1,0.8,0.1,1.2,0.1c0.4-0.3-0.7-0.3-0.5-0.7c0,0,0.2,0.8,0.1,0.5
		c0.1,0.4,0.1,0.8,0.2,1.1c0.2,0.8,0,1.7-0.5,2.3c-0.2,0.2-0.6,0.2-0.8,0.4h-0.1l1.5,1.9c0,0,0.2-0.5,0.2-0.6
		c0.6-0.7,1.3-1.2,2.2-1.6c1.4-0.8,3.5-1.9,5-1.1c-0.1,0-0.3-0.5-0.1,0l0.2,0.5c0.1,0.4,0.2,0.7,0.3,1.1c0.3,0.9,0.2,2-0.4,2.8
		l3.3,2.1c-0.2-0.7,1.1-1.9,1.9-1.8c2.3,0.3,0-4-1.6-4.2c-3.1-0.4-4.6,2.6-3.6,5.2c0.3,0.9,2.3,3.5,3.3,2.1c1.7-2.4,0.2-6.4-1.1-8.6
		c-1.8-2.9-4.8-4.3-8-3.1c-2.5,0.9-6,2.6-5.3,5.7c0.6,2.6,4.5,5.9,6.5,2.6c0.8-1.2,0.6-2.9,0.4-4.2c-0.2-1.8-0.9-3.5-2.1-4.8
		c-2.3-2.4-5.6-1.9-8.6-1.3c-1.6,0.3-3.1,0.8-4.6,1.4c-1.4,0.5-2.7,1.1-3.8,2c-2.4,2.1-1.5,6.1-0.1,8.5c0.8,1.5,2.5,3.1,4.3,2.4
		c1.4-0.5,2.4-2.1,3.2-3.3c1.7-2.9,2.4-6.2,1.9-9.5c-0.2-1.2-1-2.3-2.1-2.8C155.1,320.5,154.5,321,154.7,322L154.7,322z"></path><path class="st1" d="M132.6,287.6c5.2-0.1,10.4-0.1,15.6,0.1c0.4-0.1,0.7-0.3,1-0.5c0.6-0.3,1.1-0.7,1.6-1c0.4-0.3,0.8-0.6,1.2-0.9
		c0.1-0.1,0.4-0.3,0.1-0.3c-5.2-0.2-10.4-0.2-15.6-0.1c-0.4,0.1-0.7,0.3-1.1,0.5c-0.6,0.3-1.1,0.7-1.6,1c-0.4,0.3-0.8,0.6-1.2,0.9
		C132.5,287.4,132.2,287.6,132.6,287.6L132.6,287.6z"></path><path class="st1" d="M158.2,294.2c4.3-1.2,6.2-5.2,7.4-9.1c0.4-0.9,0.6-1.8,0.5-2.8c-0.4-1.2-1.8-1.7-3-1.8
		c-2.1-0.3-4.1,0.7-5.1,2.5c-0.8,1.7-1.1,3.5-1,5.3c0,2.2,0.5,4.3,1.6,6.2c2.3,3.8,6.9,5.4,11.1,4c1.9-0.5,3.3-2.1,3.6-4.1
		c0.2-1.9-0.8-3.7-2.5-4.6c-1.1-0.6-3.8-1.1-4.3,0.4c-1.2,3.2,1,6.5,3.6,8.3c1.7,1.2,3.9,1.9,6,1.8c1.7-0.1,3.8-0.8,4.4-2.5
		c0.4-1-0.8-1.5-1.6-1.6s-2.8-0.4-3.1,0.5c-0.1,0.2-0.2,0.4-0.3,0.6c-0.1,0.2-0.4,0.3-0.5,0.4s-0.1,0.1-0.2,0.1s0.4,0.1,0.2,0
		c-0.9-0.4-1.6-1-2.3-1.7c-1.4-1.5-1.9-3.6-1.2-5.5l-4.3,0.4c1.6,0.8,1.6,3.2,0.5,4.5c-1.2,1.4-2.3,1-3.4-0.3
		c-1.7-1.8-2.1-4.5-2.2-6.9c0-1.1,0.1-2.1,0.3-3.2c0.1-0.5,0.4-1.1,0.6-1.5c0.1-0.2,0.3-0.4,0.5-0.6c0.8-0.9,0.5,0.5-1.6-0.4
		l-0.9-0.5c0.5,0.4-0.3,2.1-0.4,2.6c-0.4,1.2-0.8,2.4-1.4,3.5c-0.9,1.8-2.4,3.3-4.4,3.9c-1,0.3-0.9,1.2-0.2,1.7
		C155.7,294.5,157,294.6,158.2,294.2L158.2,294.2z"></path><path class="st1" d="M23.3,205.4c4,0.9,8.2-0.3,11.1-3.2c2.6-2.7,3.7-6.6,2.8-10.2c-0.5-2.1-2.1-3.6-4.2-4
		c-2.2-0.2-4.2,0.9-5.2,2.8c-0.9,1.9-1,4.2-1.1,6.2c-0.2,2.3-0.2,4.6-0.1,6.9c0.1,4-0.1,9.3,3.3,12.1c1.7,1.4,4,1.8,6.1,1
		c1.7-0.9,3.2-2.2,4.3-3.8c1.2-1.6,2.2-3.4,2.8-5.4c0.5-1.7,1.2-3.7,0.8-5.5c-0.5-2.3-3.1-3.3-5.2-2.6s-2.9,2.8-3.5,4.7
		c-0.7,2.3-1.1,4.6-1.2,7c-0.3,2.3-0.3,4.7,0.2,7c1.2,4.2,6.1,7.4,10.2,4.8c2.7-1.7-0.6-5.1-3-3.6c-1.2,0.8-2.3-1.3-2.5-2.5
		c-0.3-2.7-0.2-5.4,0.3-8c0.1-1.2,0.4-2.4,0.8-3.6c0.2-0.6,0.5-1.1,0.7-1.6c0-0.1,0.1-0.1,0.1-0.2c-1.2-1.2-1.9-1.4-1.8-0.7
		c0,0.1,0,0.3,0,0.4c-0.3,2.4-1.1,4.6-2.4,6.6c-0.6,0.9-1.2,1.7-2,2.4c-0.2,0.2-0.9,0.6-0.8,0.6c0.2,0-0.2-0.1-0.3-0.1
		c-0.2-0.1-0.3-0.3-0.5-0.5c-0.5-0.9-0.8-1.9-0.9-2.9c-0.2-1.5-0.3-3-0.4-4.5c-0.1-2.9-0.1-5.8,0.2-8.7c0-1.2,0.2-2.5,0.6-3.6
		c0-0.1,0.3-0.4,0.3-0.4c0-0.2,0.1,0.1-0.2-0.1c-0.7-0.4-0.2,0-0.1,0.5c0.5,2.3-0.1,4.7-1.7,6.4c-1.7,1.8-4.2,2.6-6.6,2
		c-1.2-0.3-2.5,0.5-2.8,1.7C21.2,204.1,22.1,205.2,23.3,205.4L23.3,205.4z"></path></g></svg>