<svg width="1042" height="254" viewBox="0 0 1042 254" fill="none" xmlns="http://www.w3.org/2000/svg">
<path d="M307.093 62.6368H335.744L363.611 160.085L391.74 62.6368H419.607L375.803 191H350.461L307.093 62.6368ZM495.897 108.095C503.909 118.139 507.914 130.011 507.914 143.713C507.914 157.646 503.909 169.577 495.897 179.505C487.885 189.374 475.722 194.309 459.408 194.309C443.094 194.309 430.931 189.374 422.919 179.505C414.908 169.577 410.902 157.646 410.902 143.713C410.902 130.011 414.908 118.139 422.919 108.095C430.931 98.0513 443.094 93.0294 459.408 93.0294C475.722 93.0294 487.885 98.0513 495.897 108.095ZM459.321 114.017C452.064 114.017 446.461 116.6 442.514 121.767C438.624 126.876 436.679 134.192 436.679 143.713C436.679 153.234 438.624 160.578 442.514 165.745C446.461 170.912 452.064 173.496 459.321 173.496C466.578 173.496 472.152 170.912 476.041 165.745C479.931 160.578 481.876 153.234 481.876 143.713C481.876 134.192 479.931 126.876 476.041 121.767C472.152 116.6 466.578 114.017 459.321 114.017ZM606.759 191H575.844L559.472 162.523L543.013 191H512.882L545.277 142.929L514.275 96.2516H544.668L560.517 123.77L576.018 96.2516H605.54L574.364 142.494L606.759 191ZM723.718 191H696.896L644.471 99.822V191H619.477V62.6368H647.606L698.725 152.247V62.6368H723.718V191ZM822.389 108.095C830.4 118.139 834.406 130.011 834.406 143.713C834.406 157.646 830.4 169.577 822.389 179.505C814.377 189.374 802.214 194.309 785.9 194.309C769.586 194.309 757.423 189.374 749.411 179.505C741.4 169.577 737.394 157.646 737.394 143.713C737.394 130.011 741.4 118.139 749.411 108.095C757.423 98.0513 769.586 93.0294 785.9 93.0294C802.214 93.0294 814.377 98.0513 822.389 108.095ZM785.813 114.017C778.556 114.017 772.953 116.6 769.006 121.767C765.116 126.876 763.171 134.192 763.171 143.713C763.171 153.234 765.116 160.578 769.006 165.745C772.953 170.912 778.556 173.496 785.813 173.496C793.07 173.496 798.643 170.912 802.533 165.745C806.423 160.578 808.368 153.234 808.368 143.713C808.368 134.192 806.423 126.876 802.533 121.767C798.643 116.6 793.07 114.017 785.813 114.017ZM935.08 62.8109V191H910.958V177.85C907.416 183.482 903.381 187.575 898.853 190.129C894.324 192.684 888.693 193.961 881.958 193.961C870.869 193.961 861.522 189.491 853.917 180.55C846.37 171.551 842.596 160.027 842.596 145.977C842.596 129.779 846.311 117.036 853.743 107.747C861.232 98.4577 871.218 93.8132 883.7 93.8132C889.448 93.8132 894.557 95.0904 899.027 97.6449C903.497 100.141 907.126 103.625 909.913 108.095V62.8109H935.08ZM868.199 144.148C868.199 152.915 869.941 159.911 873.424 165.136C876.849 170.419 882.074 173.06 889.099 173.06C896.124 173.06 901.465 170.448 905.123 165.223C908.78 159.998 910.609 153.234 910.609 144.932C910.609 133.321 907.677 125.019 901.814 120.026C898.214 117.007 894.034 115.497 889.273 115.497C882.016 115.497 876.675 118.255 873.25 123.77C869.882 129.228 868.199 136.02 868.199 144.148ZM1035.41 163.133C1034.77 168.764 1031.83 174.483 1026.61 180.289C1018.48 189.52 1007.1 194.135 992.473 194.135C980.397 194.135 969.743 190.245 960.512 182.466C951.281 174.686 946.666 162.03 946.666 144.497C946.666 128.067 950.817 115.468 959.119 106.702C967.479 97.9352 978.307 93.5519 991.602 93.5519C999.497 93.5519 1006.61 95.0324 1012.94 97.9933C1019.27 100.954 1024.49 105.628 1028.61 112.014C1032.33 117.645 1034.74 124.177 1035.84 131.608C1036.48 135.962 1036.74 142.232 1036.62 150.418H971.659C972.008 159.94 974.998 166.616 980.629 170.448C984.054 172.828 988.176 174.018 992.995 174.018C998.104 174.018 1002.26 172.567 1005.45 169.664C1007.19 168.097 1008.73 165.92 1010.06 163.133H1035.41ZM1010.85 134.046C1010.44 127.486 1008.44 122.522 1004.84 119.155C1001.3 115.73 996.885 114.017 991.602 114.017C985.854 114.017 981.384 115.817 978.191 119.416C975.056 123.016 973.082 127.892 972.269 134.046H1010.85Z" fill="black"/>
<path d="M211 0C228.673 0 243 14.3269 243 32V171C243 188.673 228.673 203 211 203H112.307L57.4336 251.119C51.6164 256.22 42.5 252.089 42.5 244.353V203H32C14.3269 203 0 188.673 0 171V32C0 14.3269 14.3269 0 32 0H211ZM185 23C173.954 23 165 31.9543 165 43C165 45.0887 165.321 47.1024 165.915 48.9951L140.358 65.9297C131.186 54.9711 117.408 48 102 48C74.3858 48 52 70.3858 52 98C52 111.688 57.5016 124.089 66.4121 133.118L54.5078 149.458C52.1895 148.518 49.6554 148 47 148C35.9543 148 27 156.954 27 168C27 179.046 35.9543 188 47 188C58.0457 188 67 179.046 67 168C67 163.23 65.3292 158.85 62.542 155.413L74.125 139.514C82.0893 144.872 91.6792 148 102 148C118.196 148 132.59 140.297 141.728 128.357L177.248 151.03C176.441 153.201 176 155.549 176 158C176 169.046 184.954 178 196 178C207.046 178 216 169.046 216 158C216 146.954 207.046 138 196 138C191.025 138 186.474 139.816 182.975 142.822L146.983 119.849C150.196 113.247 152 105.835 152 98C152 89.3834 149.819 81.2764 145.981 74.1992L171.208 57.4844C174.796 60.9022 179.653 63 185 63C196.046 63 205 54.0457 205 43C205 31.9543 196.046 23 185 23ZM102.5 65C121.002 65 136 79.9985 136 98.5C136 117.002 121.002 132 102.5 132C83.9985 132 69 117.002 69 98.5C69 79.9985 83.9985 65 102.5 65Z" fill="#24CBBC"/>
</svg>
